<svg width="28" height="28" viewBox="0 0 28 28" fill="none" xmlns="http://www.w3.org/2000/svg">
<g clip-path="url(#clip0)">
<path d="M27.5113 21.0852C27.5218 21.0831 27.5321 21.0802 27.5425 21.0776C27.5513 21.0753 27.5602 21.0734 27.5689 21.0708C27.579 21.0677 27.5889 21.0639 27.5987 21.0603C27.6075 21.0572 27.6163 21.0543 27.625 21.0507C27.6343 21.0468 27.6433 21.0423 27.6523 21.038C27.6612 21.0338 27.6701 21.0299 27.6788 21.0252C27.6875 21.0206 27.6956 21.0153 27.7041 21.0103C27.7127 21.0051 27.7215 21.0002 27.7299 20.9946C27.7389 20.9886 27.7472 20.9819 27.7559 20.9755C27.7632 20.97 27.7706 20.9649 27.7777 20.9591C27.7909 20.9483 27.8033 20.9368 27.8155 20.925C27.8177 20.9229 27.82 20.9211 27.8222 20.9189C27.8245 20.9167 27.8264 20.9142 27.8286 20.9118C27.8402 20.8998 27.8516 20.8875 27.8623 20.8746C27.8685 20.867 27.8739 20.859 27.8798 20.8512C27.8857 20.8431 27.8921 20.8352 27.8976 20.8268C27.9036 20.8178 27.9089 20.8085 27.9144 20.7993C27.919 20.7915 27.924 20.7839 27.9283 20.7759C27.9333 20.7666 27.9375 20.7569 27.9419 20.7475C27.9459 20.739 27.9501 20.7307 27.9538 20.722C27.9576 20.7127 27.9607 20.7033 27.9641 20.6938C27.9674 20.6846 27.971 20.6754 27.9738 20.666C27.9767 20.6565 27.9789 20.6467 27.9813 20.637C27.9836 20.6275 27.9864 20.6181 27.9882 20.6084C27.9905 20.597 27.9919 20.5855 27.9935 20.574C27.9946 20.5659 27.9962 20.5579 27.997 20.5498C27.999 20.5296 28.0001 20.5094 28.0001 20.4892V7.51006C28.0001 7.17463 27.7283 6.90283 27.3928 6.90283H8.26517C8.25982 6.90283 8.25464 6.90348 8.2493 6.90364C8.23772 6.90397 8.22622 6.90445 8.21473 6.90542C8.20558 6.90615 8.19651 6.9072 8.18744 6.90842C8.17708 6.90971 8.1668 6.91125 8.15651 6.91311C8.14688 6.91481 8.13733 6.91684 8.12785 6.91902C8.11822 6.92129 8.10858 6.92372 8.09903 6.92647C8.08956 6.92915 8.08025 6.93206 8.07102 6.93514C8.06154 6.93837 8.05207 6.94178 8.04276 6.9455C8.03394 6.94898 8.02527 6.95254 8.01669 6.95643C8.00714 6.96072 7.99766 6.96534 7.98827 6.97011C7.98026 6.97424 7.9724 6.97845 7.96463 6.98291C7.95524 6.98825 7.94601 6.99392 7.93686 6.99975C7.92933 7.0046 7.92196 7.00962 7.91468 7.01472C7.90609 7.0208 7.89759 7.02711 7.88925 7.03375C7.88164 7.03982 7.87419 7.04606 7.86683 7.05245C7.85954 7.05885 7.85233 7.06524 7.84529 7.07205C7.83728 7.07974 7.82958 7.08775 7.82197 7.09585C7.81817 7.0999 7.81412 7.10346 7.81048 7.10759C7.80829 7.11002 7.80659 7.11269 7.80448 7.11512C7.79687 7.12394 7.78975 7.13317 7.78262 7.14248C7.77744 7.14929 7.7721 7.15609 7.76724 7.16305C7.76093 7.17212 7.7551 7.18143 7.74927 7.19082C7.74449 7.19851 7.73955 7.20612 7.73518 7.21398C7.73008 7.22304 7.72563 7.23235 7.72101 7.24166C7.7168 7.25017 7.71243 7.25867 7.70862 7.26733C7.70466 7.27648 7.70117 7.28595 7.69769 7.29526C7.69421 7.30441 7.69065 7.31348 7.68765 7.32271C7.68466 7.33202 7.68223 7.34149 7.67964 7.35097C7.67705 7.36068 7.6743 7.37032 7.67211 7.38011C7.67009 7.38926 7.66871 7.39857 7.66709 7.4078C7.66531 7.41833 7.66353 7.42885 7.66223 7.43938C7.66118 7.44812 7.66069 7.45703 7.66005 7.46593C7.65924 7.47727 7.65851 7.4886 7.65834 7.50002C7.65826 7.50334 7.65786 7.50658 7.65786 7.5099V11.2546C7.65786 11.5901 7.92965 11.8619 8.26509 11.8619C8.60052 11.8619 8.87231 11.5901 8.87231 11.2546V8.85851L14.2711 13.6384C14.2429 13.6582 14.2158 13.6801 14.1905 13.7053L8.87223 19.0236V15.033C8.87223 14.6976 8.60044 14.4258 8.26501 14.4258C7.92957 14.4258 7.65778 14.6976 7.65778 15.033V15.775H4.52044C4.185 15.775 3.91321 16.0468 3.91321 16.3822C3.91321 16.7177 4.185 16.9895 4.52044 16.9895H7.65778V20.4896C7.65778 20.825 7.92957 21.0968 8.26501 21.0968H27.3927C27.4127 21.0968 27.4327 21.0958 27.4526 21.0938C27.4619 21.0929 27.4709 21.0912 27.48 21.0899C27.4906 21.0884 27.5009 21.0872 27.5113 21.0852ZM26.7855 19.0237L21.4672 13.7054C21.4638 13.702 21.4601 13.6992 21.4567 13.6959L25.4549 10.3038C25.7106 10.0868 25.742 9.70369 25.525 9.44793C25.3082 9.19232 24.9251 9.16075 24.6691 9.37781L17.8373 15.174L9.86695 8.11737H26.7855V19.0237ZM15.0494 14.5643C15.0927 14.521 15.1278 14.4727 15.1553 14.4214L17.4264 16.4321C17.5412 16.5337 17.685 16.5847 17.8289 16.5847C17.9687 16.5847 18.1083 16.5367 18.2218 16.4405L20.5363 14.4768C20.5574 14.5076 20.5811 14.537 20.6084 14.5643L25.9267 19.8825H9.7311L15.0494 14.5643Z" fill="#FFFDFD"/>
<path d="M0.607228 13.8185H10.8627C11.1981 13.8185 11.4699 13.5467 11.4699 13.2112C11.4699 12.8758 11.1981 12.604 10.8627 12.604H0.607228C0.271795 12.604 0 12.8758 0 13.2112C0 13.5467 0.271795 13.8185 0.607228 13.8185Z" fill="#FFFDFD"/>
<path d="M1.66988 10.4723H6.27469C6.61012 10.4723 6.88192 10.2005 6.88192 9.86504C6.88192 9.52961 6.61012 9.25781 6.27469 9.25781H1.66988C1.33445 9.25781 1.06265 9.52961 1.06265 9.86504C1.06265 10.2005 1.33445 10.4723 1.66988 10.4723Z" fill="#FFFDFD"/>
<path d="M5.06023 18.3389H0.607228C0.271795 18.3389 0 18.6107 0 18.9461C0 19.2815 0.271795 19.5533 0.607228 19.5533H5.06023C5.39566 19.5533 5.66746 19.2815 5.66746 18.9461C5.66746 18.6107 5.39566 18.3389 5.06023 18.3389Z" fill="#FFFDFD"/>
</g>
<defs>
<clipPath id="clip0">
<rect width="28" height="28" fill="white"/>
</clipPath>
</defs>
</svg>
