<svg width="790" height="589" viewBox="0 0 790 589" fill="none" xmlns="http://www.w3.org/2000/svg">
<path d="M790 517.292H0V517.687H790V517.292Z" fill="#EBEBEB"/>
<path d="M710.842 542.714H658.513V543.109H710.842V542.714Z" fill="#EBEBEB"/>
<path d="M523.327 547.012H509.597V547.407H523.327V547.012Z" fill="#EBEBEB"/>
<path d="M656.933 528.052H626.612V528.447H656.933V528.052Z" fill="#EBEBEB"/>
<path d="M151.127 530.706H82.8867V531.101H151.127V530.706Z" fill="#EBEBEB"/>
<path d="M175.206 530.706H165.205V531.101H175.206V530.706Z" fill="#EBEBEB"/>
<path d="M355.737 537.374H207.723V537.769H355.737V537.374Z" fill="#EBEBEB"/>
<path d="M374.46 446.824H69.3776C66.9876 446.82 64.6969 445.867 63.0084 444.176C61.3199 442.484 60.3716 440.192 60.3716 437.802V8.94274C60.3924 6.56646 61.3499 4.29434 63.0362 2.61992C64.7224 0.945503 67.0012 0.00400966 69.3776 -6.10352e-05H374.46C376.853 -6.10352e-05 379.147 0.950448 380.839 2.64236C382.531 4.33428 383.482 6.62901 383.482 9.02174V437.802C383.482 440.195 382.531 442.49 380.839 444.182C379.147 445.873 376.853 446.824 374.46 446.824ZM69.3776 0.31594C67.0924 0.320126 64.9021 1.23086 63.2877 2.84825C61.6733 4.46563 60.7666 6.6575 60.7666 8.94274V437.802C60.7666 440.087 61.6733 442.279 63.2877 443.897C64.9021 445.514 67.0924 446.425 69.3776 446.429H374.46C376.746 446.425 378.938 445.514 380.555 443.898C382.172 442.281 383.082 440.089 383.087 437.802V8.94274C383.082 6.65605 382.172 4.46422 380.555 2.84728C378.938 1.23035 376.746 0.320117 374.46 0.31594H69.3776Z" fill="#EBEBEB"/>
<path d="M716.23 446.824H411.132C408.741 446.82 406.448 445.868 404.757 444.177C403.066 442.486 402.115 440.194 402.11 437.802V8.94274C402.135 6.56502 403.096 4.29292 404.785 2.61894C406.474 0.944951 408.754 0.00396526 411.132 -6.10352e-05H716.23C718.604 0.00816207 720.879 0.951493 722.561 2.62547C724.244 4.29945 725.2 6.56919 725.22 8.94274V437.802C725.22 440.189 724.274 442.479 722.589 444.17C720.904 445.861 718.617 446.816 716.23 446.824ZM411.132 0.31594C408.845 0.320117 406.654 1.23035 405.037 2.84728C403.42 4.46422 402.51 6.65605 402.505 8.94274V437.802C402.51 440.089 403.42 442.281 405.037 443.898C406.654 445.514 408.845 446.425 411.132 446.429H716.23C718.517 446.425 720.709 445.514 722.326 443.898C723.943 442.281 724.853 440.089 724.857 437.802V8.94274C724.853 6.65605 723.943 4.46422 722.326 2.84728C720.709 1.23035 718.517 0.320117 716.23 0.31594H411.132Z" fill="#EBEBEB"/>
<path d="M346.178 517.292H375.598V315.257H346.178V517.292Z" fill="#E6E6E6"/>
<path d="M356.543 517.292H346.178V478.898H367.398L356.543 517.292Z" fill="#F0F0F0"/>
<path d="M657.327 517.292H686.747V315.257H657.327V517.292Z" fill="#E6E6E6"/>
<path d="M346.194 506.801L666.365 506.801V315.242H346.194V506.801Z" fill="#F0F0F0"/>
<path d="M656 517.292H666.365V478.898H645.146L656 517.292Z" fill="#F0F0F0"/>
<path d="M560.805 331.105V489.563H655.716V331.105H560.805Z" fill="#E6E6E6"/>
<path d="M598.82 336.682H617.591C625.547 336.797 633.259 333.928 639.205 328.64H577.301C583.225 333.903 590.897 336.77 598.82 336.682Z" fill="#F0F0F0"/>
<path d="M458.816 331.105V489.563H553.727V331.105H458.816Z" fill="#E6E6E6"/>
<path d="M495.915 336.682H514.701C522.641 336.782 530.332 333.914 536.268 328.64H474.364C480.293 333.914 487.98 336.783 495.915 336.682Z" fill="#F0F0F0"/>
<path d="M356.828 331.121V489.579H451.738V331.121H356.828Z" fill="#E6E6E6"/>
<path d="M393.942 336.682H412.712C420.652 336.782 428.343 333.914 434.279 328.64H372.375C378.309 333.917 386.001 336.785 393.942 336.682Z" fill="#F0F0F0"/>
<path d="M117.868 517.292H318.623L318.623 66.0124H117.868L117.868 517.292Z" fill="#F0F0F0"/>
<path d="M117.868 517.292H314.388L314.388 66.0124H117.868L117.868 517.292Z" fill="#F5F5F5"/>
<path d="M302.412 507.054V76.2508L129.844 76.2508L129.844 507.054H302.412Z" fill="#F0F0F0"/>
<path d="M285.459 156.42C285.461 150.242 284.246 144.124 281.883 138.415C279.52 132.706 276.056 127.519 271.688 123.15C267.32 118.78 262.134 115.314 256.426 112.95C250.718 110.585 244.601 109.368 238.422 109.368H193.866C181.387 109.368 169.419 114.325 160.595 123.149C151.771 131.973 146.814 143.941 146.814 156.42H285.459Z" fill="#FAFAFA"/>
<path d="M285.475 480.273V377.351H146.83V480.273H285.475Z" fill="#F5F5F5"/>
<path d="M285.474 185.381H224.312V364.064H285.474V185.381Z" fill="#F5F5F5"/>
<path d="M207.976 185.381H146.814V364.064H207.976V185.381Z" fill="#F5F5F5"/>
<path d="M169.06 273.925H143.938C142.907 273.925 141.919 273.515 141.19 272.786C140.461 272.057 140.051 271.069 140.051 270.038C140.055 269.008 140.466 268.022 141.194 267.294C141.922 266.566 142.909 266.155 143.938 266.151H169.06C170.09 266.155 171.076 266.566 171.804 267.294C172.532 268.022 172.943 269.008 172.947 270.038C172.947 271.069 172.537 272.057 171.808 272.786C171.08 273.515 170.091 273.925 169.06 273.925Z" fill="#E0E0E0"/>
<path d="M132.957 507.054L132.957 76.2508H129.844L129.844 507.054H132.957Z" fill="#F0F0F0"/>
<path d="M445.624 265.724H658.513V43.1814L445.624 43.1814V265.724Z" fill="#E6E6E6"/>
<path d="M440.251 265.724H653.14V43.1814L440.251 43.1814V265.724Z" fill="#F5F5F5"/>
<path d="M427.817 277.29H658.513V265.724H427.817V277.29Z" fill="#E6E6E6"/>
<path d="M421.765 277.29H640.579V265.724H421.765V277.29Z" fill="#F5F5F5"/>
<path d="M643.518 255.344V53.5778L449.889 53.5778V255.344H643.518Z" fill="white"/>
<path d="M552.068 255.344V53.5778H541.34V255.344H552.068Z" fill="#F5F5F5"/>
<path d="M453.934 255.344V53.5778H449.873V255.344H453.934Z" fill="#E6E6E6"/>
<path d="M556.128 255.344V53.5778H552.068V255.344H556.128Z" fill="#E6E6E6"/>
<path d="M474.237 271.017C470.318 230.443 467.585 164.62 469.702 142.595C469.746 142.22 469.866 141.857 470.057 141.531C470.247 141.205 470.503 140.921 470.808 140.699C471.216 140.4 471.7 140.221 472.205 140.184C472.71 140.146 473.215 140.251 473.662 140.487C474.11 140.722 474.483 141.079 474.738 141.516C474.993 141.953 475.121 142.453 475.106 142.958C474.742 153.876 474.316 181.147 476.686 228.184C477.839 251.599 479.498 267.684 478.361 271.017H474.237Z" fill="#E6E6E6"/>
<path d="M459.638 177.513C448.483 165.126 425.715 156.325 402.521 156.373C393.404 156.373 430.234 170.766 445.544 186.645C457.442 198.969 470.824 219.715 475.422 231.233C472.42 206.98 470.84 189.884 459.638 177.513Z" fill="#E6E6E6"/>
<path d="M481.742 181.289C491.001 168.396 512.362 158.474 535.462 157.352C544.531 156.91 509.992 173.152 497.1 189.679C487.098 202.556 476.828 223.902 474 235.594C473.352 211.309 472.42 194.182 481.742 181.289Z" fill="#E6E6E6"/>
<path d="M459.148 132.309C449.668 121.818 430.424 114.36 410.769 114.408C403.058 114.408 434.232 126.605 447.203 140.035C457.284 150.479 468.644 168.049 472.483 177.797C470.003 157.289 468.581 142.785 459.148 132.309Z" fill="#E6E6E6"/>
<path d="M477.855 147.809C485.755 136.891 503.783 128.486 523.375 127.538C531.054 127.174 501.808 140.873 490.89 154.919C482.422 165.821 473.716 183.896 471.33 193.803C470.84 173.231 470.019 158.727 477.855 147.809Z" fill="#E6E6E6"/>
<path d="M475.801 315.257C469.918 315.259 464.257 313.009 459.979 308.969C455.701 304.93 453.131 299.406 452.796 293.532L450.758 258.267H500.86L498.822 293.532C498.487 299.409 495.915 304.935 491.634 308.975C487.353 313.015 481.688 315.263 475.801 315.257Z" fill="#E6E6E6"/>
<path d="M504.099 266.277H447.519L445.892 251.599H505.711L504.099 266.277Z" fill="#E6E6E6"/>
<path d="M395 588.645C564.19 588.645 701.346 580.637 701.346 570.759C701.346 560.881 564.19 552.874 395 552.874C225.81 552.874 88.6538 560.881 88.6538 570.759C88.6538 580.637 225.81 588.645 395 588.645Z" fill="#F5F5F5"/>
<path d="M82.6338 92.4774C82.6421 89.8484 83.6902 87.3294 85.5492 85.4704C87.4082 83.6114 89.9272 82.5633 92.5562 82.555H535.304C537.933 82.5633 540.452 83.6114 542.311 85.4704C544.17 87.3294 545.218 89.8484 545.226 92.4774V124.409H82.6338V92.4774Z" fill="#263238"/>
<path d="M162.85 111.848C161.194 111.848 159.575 111.357 158.198 110.437C156.821 109.517 155.747 108.209 155.114 106.679C154.48 105.149 154.314 103.465 154.637 101.84C154.96 100.216 155.758 98.724 156.929 97.5528C158.1 96.3817 159.592 95.5842 161.216 95.2611C162.841 94.938 164.525 95.1038 166.055 95.7376C167.585 96.3714 168.893 97.4447 169.813 98.8218C170.733 100.199 171.224 101.818 171.224 103.474C171.224 105.695 170.342 107.825 168.771 109.395C167.201 110.966 165.071 111.848 162.85 111.848ZM162.85 96.854C161.541 96.854 160.261 97.2422 159.172 97.9697C158.083 98.6971 157.235 99.731 156.734 100.941C156.233 102.15 156.102 103.482 156.357 104.766C156.613 106.05 157.243 107.229 158.169 108.155C159.095 109.081 160.274 109.712 161.559 109.967C162.843 110.223 164.174 110.091 165.384 109.59C166.593 109.089 167.627 108.241 168.355 107.152C169.082 106.063 169.47 104.784 169.47 103.474C169.466 101.72 168.767 100.038 167.527 98.7976C166.286 97.557 164.605 96.8581 162.85 96.854Z" fill="#F0F0F0"/>
<path d="M136.259 111.848C134.604 111.845 132.986 111.351 131.611 110.429C130.236 109.507 129.165 108.198 128.534 106.668C127.902 105.137 127.739 103.454 128.064 101.831C128.389 100.207 129.187 98.7168 130.359 97.5473C131.531 96.3777 133.023 95.5817 134.647 95.2599C136.271 94.9381 137.954 95.1048 139.483 95.7391C141.012 96.3734 142.319 97.4467 143.239 98.8234C144.158 100.2 144.649 101.819 144.649 103.474C144.649 104.575 144.432 105.665 144.01 106.682C143.588 107.699 142.97 108.623 142.191 109.401C141.411 110.179 140.486 110.795 139.469 111.215C138.451 111.635 137.36 111.85 136.259 111.848ZM136.259 96.854C134.95 96.8571 133.672 97.248 132.585 97.9773C131.499 98.7067 130.653 99.7417 130.154 100.952C129.655 102.162 129.527 103.492 129.784 104.775C130.041 106.058 130.673 107.237 131.599 108.161C132.526 109.085 133.705 109.714 134.989 109.968C136.273 110.222 137.603 110.09 138.812 109.589C140.021 109.087 141.054 108.239 141.78 107.15C142.507 106.062 142.895 104.783 142.895 103.474C142.891 101.717 142.19 100.033 140.946 98.792C139.702 97.5509 138.016 96.8539 136.259 96.854Z" fill="#F0F0F0"/>
<path d="M109.683 111.848C108.028 111.845 106.41 111.351 105.035 110.429C103.66 109.507 102.589 108.198 101.958 106.668C101.327 105.137 101.163 103.454 101.488 101.831C101.813 100.207 102.612 98.7168 103.783 97.5473C104.955 96.3777 106.447 95.5817 108.071 95.2599C109.695 94.9381 111.378 95.1048 112.907 95.7391C114.437 96.3734 115.744 97.4467 116.663 98.8234C117.582 100.2 118.073 101.819 118.073 103.474C118.073 104.575 117.856 105.665 117.434 106.682C117.012 107.699 116.394 108.623 115.615 109.401C114.836 110.179 113.911 110.795 112.893 111.215C111.875 111.635 110.784 111.85 109.683 111.848ZM109.683 96.854C108.374 96.854 107.094 97.2422 106.005 97.9697C104.917 98.6971 104.068 99.731 103.567 100.941C103.066 102.15 102.935 103.481 103.19 104.766C103.446 106.05 104.076 107.229 105.002 108.155C105.928 109.081 107.108 109.712 108.392 109.967C109.676 110.223 111.007 110.091 112.217 109.59C113.427 109.089 114.46 108.241 115.188 107.152C115.915 106.063 116.304 104.783 116.304 103.474C116.299 101.72 115.601 100.038 114.36 98.7976C113.119 97.5569 111.438 96.8581 109.683 96.854Z" fill="#F0F0F0"/>
<path d="M535.304 429.081H92.5562C89.9272 429.072 87.4082 428.024 85.5492 426.165C83.6902 424.306 82.6421 421.787 82.6338 419.158V124.409H545.226V419.158C545.218 421.787 544.17 424.306 542.311 426.165C540.452 428.024 537.933 429.072 535.304 429.081Z" fill="#23B5D3"/>
<path d="M542.414 132.894H85.4463V394.115H542.414V132.894Z" fill="white"/>
<path d="M287.923 155.282H113.855C110.53 155.282 107.835 157.978 107.835 161.302V184.544C107.835 187.869 110.53 190.564 113.855 190.564H287.923C291.248 190.564 293.943 187.869 293.943 184.544V161.302C293.943 157.978 291.248 155.282 287.923 155.282Z" fill="#23B5D3"/>
<path d="M514.005 156.862C515.183 156.862 516.312 157.33 517.145 158.163C517.977 158.995 518.445 160.125 518.445 161.302V184.544C518.445 185.722 517.977 186.851 517.145 187.683C516.312 188.516 515.183 188.984 514.005 188.984H339.937C338.759 188.984 337.63 188.516 336.797 187.683C335.965 186.851 335.497 185.722 335.497 184.544V161.302C335.497 160.125 335.965 158.995 336.797 158.163C337.63 157.33 338.759 156.862 339.937 156.862H514.005ZM514.005 155.282H339.937C338.342 155.287 336.813 155.922 335.685 157.05C334.557 158.178 333.921 159.707 333.917 161.302V184.544C333.917 186.141 334.551 187.672 335.68 188.801C336.809 189.93 338.34 190.564 339.937 190.564H514.005C515.602 190.564 517.133 189.93 518.262 188.801C519.391 187.672 520.025 186.141 520.025 184.544V161.302C520.021 159.707 519.385 158.178 518.257 157.05C517.129 155.922 515.601 155.287 514.005 155.282Z" fill="#23B5D3"/>
<path d="M138.771 206.364C144.578 206.364 150.253 208.085 155.081 211.311C159.909 214.537 163.671 219.122 165.893 224.486C168.115 229.85 168.696 235.753 167.564 241.447C166.431 247.142 163.635 252.373 159.529 256.478C155.424 260.584 150.193 263.38 144.499 264.512C138.804 265.645 132.901 265.064 127.537 262.842C122.173 260.62 117.588 256.857 114.362 252.03C111.137 247.202 109.415 241.526 109.415 235.72C109.423 227.937 112.519 220.475 118.023 214.971C123.526 209.468 130.988 206.372 138.771 206.364ZM138.771 204.784C132.653 204.784 126.671 206.598 121.584 209.997C116.497 213.397 112.531 218.228 110.19 223.881C107.848 229.534 107.236 235.754 108.429 241.756C109.623 247.757 112.57 253.269 116.896 257.596C121.223 261.922 126.735 264.868 132.736 266.062C138.737 267.256 144.957 266.643 150.61 264.302C156.263 261.96 161.095 257.995 164.494 252.908C167.893 247.82 169.708 241.839 169.708 235.72C169.708 227.515 166.448 219.647 160.647 213.845C154.845 208.043 146.976 204.784 138.771 204.784Z" fill="#23B5D3"/>
<path opacity="0.4" d="M161.16 247.886C158.968 251.927 155.726 255.301 151.775 257.653C147.825 260.004 143.313 261.245 138.716 261.245C134.119 261.245 129.607 260.004 125.656 257.653C121.706 255.301 118.464 251.927 116.272 247.886C122.915 243.446 130.726 241.075 138.716 241.075C146.706 241.075 154.517 243.446 161.16 247.886Z" fill="#23B5D3"/>
<path opacity="0.4" d="M138.772 238.359C145.054 238.359 150.148 233.266 150.148 226.983C150.148 220.7 145.054 215.607 138.772 215.607C132.489 215.607 127.396 220.7 127.396 226.983C127.396 233.266 132.489 238.359 138.772 238.359Z" fill="#23B5D3"/>
<path opacity="0.4" d="M504.115 251.631H202.998C198.779 251.631 194.732 249.954 191.748 246.971C188.764 243.987 187.088 239.94 187.088 235.72C187.088 233.632 187.5 231.563 188.299 229.634C189.099 227.704 190.271 225.951 191.749 224.475C193.227 222.999 194.981 221.829 196.911 221.031C198.841 220.233 200.91 219.823 202.998 219.825H504.115C506.204 219.823 508.272 220.233 510.202 221.031C512.133 221.829 513.887 222.999 515.364 224.475C516.842 225.951 518.014 227.704 518.814 229.634C519.614 231.563 520.025 233.632 520.025 235.72C520.025 239.94 518.349 243.987 515.365 246.971C512.382 249.954 508.335 251.631 504.115 251.631Z" fill="#23B5D3"/>
<path d="M138.771 290.72C144.578 290.72 150.253 292.442 155.081 295.667C159.909 298.893 163.671 303.478 165.893 308.842C168.115 314.206 168.696 320.109 167.564 325.803C166.431 331.498 163.635 336.729 159.529 340.834C155.424 344.94 150.193 347.736 144.499 348.869C138.804 350.001 132.901 349.42 127.537 347.198C122.173 344.976 117.588 341.214 114.362 336.386C111.137 331.558 109.415 325.882 109.415 320.076C109.419 312.292 112.513 304.827 118.018 299.323C123.522 293.818 130.987 290.724 138.771 290.72ZM138.771 289.14C132.653 289.14 126.671 290.954 121.584 294.354C116.497 297.753 112.531 302.585 110.19 308.237C107.848 313.89 107.236 320.111 108.429 326.112C109.623 332.113 112.57 337.625 116.896 341.952C121.223 346.278 126.735 349.225 132.736 350.418C138.737 351.612 144.957 350.999 150.61 348.658C156.263 346.316 161.095 342.351 164.494 337.264C167.893 332.176 169.708 326.195 169.708 320.076C169.708 311.871 166.448 304.003 160.647 298.201C154.845 292.399 146.976 289.14 138.771 289.14Z" fill="#23B5D3"/>
<path opacity="0.4" d="M161.16 332.148C158.968 336.189 155.726 339.563 151.775 341.914C147.825 344.266 143.313 345.507 138.716 345.507C134.119 345.507 129.607 344.266 125.656 341.914C121.706 339.563 118.464 336.189 116.272 332.148C122.919 327.717 130.728 325.353 138.716 325.353C146.704 325.353 154.513 327.717 161.16 332.148Z" fill="#23B5D3"/>
<path opacity="0.4" d="M138.772 322.636C145.054 322.636 150.148 317.543 150.148 311.26C150.148 304.977 145.054 299.884 138.772 299.884C132.489 299.884 127.396 304.977 127.396 311.26C127.396 317.543 132.489 322.636 138.772 322.636Z" fill="#23B5D3"/>
<path opacity="0.4" d="M202.998 304.087H504.115C508.335 304.087 512.382 305.763 515.365 308.747C518.349 311.731 520.025 315.778 520.025 319.997C520.025 324.217 518.349 328.264 515.365 331.248C512.382 334.232 508.335 335.908 504.115 335.908H202.998C198.779 335.908 194.732 334.232 191.748 331.248C188.764 328.264 187.088 324.217 187.088 319.997C187.088 315.782 188.763 311.739 191.743 308.758C194.724 305.777 198.767 304.103 202.983 304.103L202.998 304.087Z" fill="#23B5D3"/>
<path opacity="0.1" d="M429.95 335.434C429.948 345.099 430.895 354.741 432.778 364.222C423.942 369.469 416.619 376.921 411.526 385.847C406.433 394.773 403.744 404.868 403.722 415.145C403.69 419.837 404.22 424.515 405.302 429.081H535.304C537.933 429.072 540.452 428.024 542.311 426.165C544.17 424.306 545.218 421.787 545.226 419.158V191.638C512.536 198.949 483.309 217.173 462.357 243.309C441.404 269.445 429.975 301.936 429.95 335.434Z" fill="black"/>
<path d="M670.13 434.59C721.461 383.259 721.461 300.036 670.13 248.705C618.799 197.374 535.576 197.374 484.245 248.705C432.915 300.036 432.915 383.259 484.245 434.59C535.576 485.92 618.799 485.92 670.13 434.59Z" fill="#23B5D3"/>
<path d="M662.531 426.214C709.327 379.419 709.327 303.548 662.531 256.753C615.736 209.958 539.865 209.958 493.07 256.753C446.275 303.548 446.275 379.419 493.07 426.214C539.865 473.01 615.736 473.01 662.531 426.214Z" fill="white"/>
<path d="M537.373 261.095L529.726 270.891C529.726 270.891 523.011 275.979 520.467 280.371C517.497 283.31 514.779 286.328 512.093 289.503C509.015 293.135 506.145 296.938 503.498 300.895C500.599 305.127 498.203 309.682 496.357 314.467C495.188 317.496 494.541 320.702 494.445 323.947C494.403 326.243 494.811 328.524 495.646 330.662C496.693 333.282 498.422 335.573 500.654 337.298L502.329 338.562L504.841 339.036C509.801 339.979 514.835 340.476 519.883 340.522L521.874 340.348L519.82 320.313C518.129 320.313 514.495 320.645 512.836 320.614C512.836 320.298 512.962 319.982 513.041 319.666C514.042 315.852 515.418 312.148 517.149 308.606C518.919 304.766 520.957 300.927 523.074 297.103C524.939 293.722 526.945 290.325 528.889 287.007L538.369 281.035L543.915 271.191L537.373 261.095ZM512.71 323.505C512.696 323.353 512.696 323.199 512.71 323.047C512.777 323.159 512.825 323.282 512.852 323.41C512.899 323.789 512.789 323.805 512.71 323.505Z" fill="#7F3E3B"/>
<path d="M591.22 282.267C591.457 281.05 583.146 276.879 577.426 280.276C572.481 283.215 571.849 287.228 573.65 292.016C573.65 292.347 573.777 292.679 573.824 293.011C573.935 293.785 574.029 294.591 574.077 295.318C574.44 300.358 573.113 305.051 567.441 307.721C567.441 308.037 566.667 308.369 566.414 308.59C564.313 310.438 562.973 312.999 562.653 315.779C562.653 317.833 564.597 319.46 566.856 321.419L570.016 323.552L574.345 323.142C587.633 319.239 593.843 307.105 593.558 306.204C590.145 300.579 590.193 290.72 591.22 282.267Z" fill="#7F3E3B"/>
<path d="M619.945 311.055L617.543 310.644C614.383 310.138 600.29 306.947 593.48 306.346C591.9 309.712 586.717 317.928 573.43 321.83L570.143 322.604L566.983 321.024C566.007 320.32 565.193 319.414 564.599 318.367C564.005 317.32 563.643 316.157 563.539 314.957C563.647 313.723 564.008 312.525 564.601 311.437C565.194 310.35 566.005 309.397 566.983 308.637C567.098 308.537 567.19 308.413 567.252 308.274C567.252 307.895 567.252 307.642 567.252 307.61C566.256 307.737 553.648 309.648 552.589 309.822C540.703 312.018 529.035 315.259 517.719 319.508L517.845 320.645L520.136 340.537L520.989 348.074C520.989 348.074 527.309 347.363 535.604 345.909C533.345 366.039 532.903 395.205 539.807 432.699L566.778 432.193L613.641 431.324C613.83 428.164 613.483 421.623 613.151 412.68L612.724 398.871C612.471 386.673 612.519 372.011 613.609 356.337C613.783 353.857 613.988 351.36 614.209 348.832C623.784 359.181 633.375 369.072 633.375 369.072L637.909 364.711C643.708 361.915 648.274 356.906 652.256 350.886L657.58 345.751C657.58 345.751 632.901 313.235 619.945 311.055Z" fill="#23B5D3"/>
<path opacity="0.3" d="M606.972 340.711C607.333 344 608.383 347.177 610.053 350.033L613.687 356.258C613.861 353.778 614.066 351.281 614.288 348.753C611.791 346.02 609.295 343.318 606.972 340.711Z" fill="black"/>
<path opacity="0.3" d="M614.304 348.769C614.083 351.297 613.877 353.794 613.704 356.274C613.862 353.794 614.083 351.281 614.304 348.769Z" fill="black"/>
<path d="M573.65 292.016C573.65 292.347 573.761 292.679 573.824 293.011C573.824 292.679 573.714 292.347 573.65 292.016Z" fill="#7F3E3B"/>
<path opacity="0.2" d="M574.077 295.318C574.077 294.559 573.935 293.738 573.824 293.011C573.935 293.785 574.03 294.559 574.077 295.318Z" fill="black"/>
<path d="M583.905 288.271C583.589 288.492 583.288 288.729 582.957 288.95C580.192 290.802 576.974 291.862 573.65 292.016C573.65 292.347 573.761 292.679 573.824 293.011C573.935 293.785 574.03 294.591 574.077 295.318C574.077 295.318 574.077 295.413 574.077 295.46C578.176 294.46 581.71 291.874 583.905 288.271Z" fill="#7F3E3B"/>
<path d="M601.648 308.748C601.509 308.098 601.188 307.502 600.724 307.026C600.26 306.551 599.671 306.217 599.026 306.062L595.739 305.272C595.328 305.175 594.897 305.213 594.51 305.381C594.123 305.549 593.8 305.838 593.59 306.204L593.48 306.346C591.9 309.712 586.717 317.928 573.429 321.83L572.402 322.067L570.143 322.604L566.983 321.024C566.007 320.32 565.193 319.414 564.599 318.367C564.005 317.32 563.643 316.157 563.539 314.957C563.647 313.723 564.008 312.525 564.601 311.437C565.194 310.35 566.005 309.397 566.983 308.637C567.157 308.46 567.31 308.264 567.441 308.053C567.584 307.689 567.552 307.515 567.299 307.357C563.807 304.845 556.002 308.716 555.686 309.38C555.354 309.712 555.023 310.059 554.691 310.454C553.716 311.601 552.989 312.937 552.554 314.378C552.119 315.819 551.986 317.334 552.163 318.828C552.492 321.342 553.383 323.75 554.77 325.872C556.157 327.995 558.003 329.778 560.173 331.089C560.245 331.112 560.323 331.112 560.394 331.089C560.477 331.113 560.565 331.113 560.647 331.089C560.716 331.041 560.771 330.977 560.81 330.903C560.848 330.828 560.869 330.746 560.869 330.662C560.875 328.794 561.434 326.97 562.474 325.418C563.514 323.867 564.989 322.657 566.714 321.941L569.479 323.426C557.598 372.185 565.656 430.629 565.877 432.209H566.794C566.794 431.609 558.42 372.659 570.396 323.631L573.287 322.936C576.653 327.044 575.057 333.143 575.041 333.206C575.019 333.291 575.02 333.38 575.045 333.463C575.071 333.547 575.118 333.622 575.183 333.68C575.272 333.753 575.384 333.792 575.499 333.791C575.556 333.807 575.616 333.807 575.673 333.791C576.305 333.506 591.252 326.965 596.482 320.724C598.951 317.742 600.693 314.226 601.569 310.454C601.743 309.902 601.77 309.314 601.648 308.748Z" fill="white"/>
<path opacity="0.2" d="M583.905 288.271C583.589 288.492 583.288 288.729 582.957 288.95C580.192 290.802 576.974 291.862 573.65 292.016C573.65 292.347 573.761 292.679 573.824 293.011C573.935 293.785 574.03 294.591 574.077 295.318C574.077 295.318 574.077 295.413 574.077 295.46C578.176 294.46 581.71 291.874 583.905 288.271Z" fill="black"/>
<path d="M564.392 253.385C570.57 245.485 566.651 240.745 564.029 241.187C561.548 242.356 559.194 245.658 557.977 253.053C557.685 254.797 557.643 256.574 557.851 258.33C560.395 258.204 564.392 253.385 564.392 253.385Z" fill="#263238"/>
<path d="M590.288 270.812C607.399 240.713 573.603 237.205 566.714 243.952C564.391 246.108 562.432 248.627 560.915 251.41L559.478 254.238C558.882 255.574 558.355 256.94 557.898 258.33C556.16 263.326 555.252 268.572 555.212 273.861C555.2 276.277 555.673 278.67 556.603 280.899C557.532 283.128 558.899 285.149 560.622 286.841C562.345 288.534 564.39 289.864 566.636 290.752C568.882 291.641 571.283 292.071 573.698 292.016C577.021 291.862 580.24 290.802 583.004 288.95C583.336 288.729 583.636 288.492 583.952 288.271C586.208 286.663 588.134 284.635 589.624 282.299C593.132 276.626 592.215 273.767 590.288 270.812Z" fill="#7F3E3B"/>
<path d="M558.609 253.306C558.505 253.443 558.458 253.615 558.479 253.786C558.5 253.957 558.586 254.114 558.72 254.222C558.837 254.313 558.982 254.363 559.13 254.364C559.257 254.361 559.379 254.316 559.478 254.238C559.541 254.21 559.595 254.167 559.636 254.111C560.141 253.445 560.793 252.903 561.541 252.527C562.289 252.152 563.113 251.954 563.949 251.947C564.123 251.956 564.293 251.896 564.423 251.781C564.553 251.665 564.632 251.504 564.645 251.331C564.651 251.246 564.641 251.16 564.614 251.079C564.587 250.998 564.545 250.923 564.489 250.858C564.433 250.794 564.365 250.741 564.289 250.702C564.212 250.664 564.129 250.641 564.044 250.635C562.943 250.629 561.857 250.895 560.884 251.41C560.003 251.878 559.229 252.524 558.609 253.306Z" fill="#263238"/>
<path d="M575.704 272.234C575.643 272.175 575.561 272.142 575.475 272.142C575.39 272.142 575.308 272.175 575.246 272.234C574.165 273.14 572.892 273.787 571.523 274.127C570.154 274.466 568.725 274.489 567.346 274.193C567.263 274.179 567.177 274.197 567.106 274.244C567.036 274.291 566.986 274.363 566.967 274.446C566.952 274.532 566.97 274.619 567.017 274.693C567.064 274.766 567.136 274.819 567.22 274.841C567.974 274.991 568.742 275.06 569.511 275.046C571.773 275.025 573.953 274.196 575.657 272.708C575.692 272.68 575.721 272.646 575.742 272.607C575.763 272.568 575.777 272.525 575.781 272.481C575.785 272.437 575.781 272.392 575.768 272.35C575.755 272.307 575.733 272.268 575.704 272.234Z" fill="#263238"/>
<path d="M567.22 260.953C565.128 264.015 562.636 266.783 559.81 269.185C561.39 271.365 564.802 271.207 564.802 271.207L567.22 260.953Z" fill="#630F0F"/>
<path d="M561.627 261.332C562.338 261.474 563.207 260.716 563.381 259.626C563.554 258.535 563.27 257.556 562.559 257.414C561.848 257.271 561.058 258.03 560.805 259.12C560.552 260.21 560.9 261.19 561.627 261.332Z" fill="#263238"/>
<path d="M573.982 263.86C574.693 264.002 575.467 263.244 575.736 262.154C576.004 261.063 575.609 260.084 574.898 259.942C574.187 259.799 573.397 260.558 573.145 261.648C572.892 262.738 573.255 263.655 573.982 263.86Z" fill="#263238"/>
<path d="M601.111 246.638C607.794 240.918 592.563 229.258 592.563 229.258C592.563 229.258 594.269 233.429 590.73 234.583C587.191 235.736 562.29 226.446 562.653 236.984C562.721 238.469 563.197 239.907 564.028 241.14C564.769 242.2 565.676 243.134 566.714 243.905C572.497 248.297 583.02 249.64 588.708 249.64C587.805 251.841 587.173 254.144 586.827 256.497C586.392 258.978 586.474 261.522 587.07 263.969C587.665 266.417 588.761 268.714 590.288 270.717C593.448 276.216 597.666 276.058 601.269 271.871C607.051 266.404 612.629 255.328 601.111 246.638Z" fill="#263238"/>
<path d="M598.203 268.711C595.58 267.636 592.626 268.9 590.303 270.812C589.029 271.826 587.925 273.036 587.033 274.399C584.805 277.89 585.595 281.951 589.592 282.299H590.287H591.235C594.383 281.978 597.323 280.583 599.562 278.349C600.392 277.548 600.99 276.538 601.293 275.426C601.596 274.313 601.593 273.139 601.284 272.029C601.058 271.277 600.663 270.587 600.129 270.012C599.595 269.436 598.936 268.991 598.203 268.711Z" fill="#7F3E3B"/>
<path d="M539.886 432.62C539.886 432.62 539.459 436.317 538.796 442.526C562.993 450.708 589.169 450.952 613.514 443.222C613.672 435.717 613.783 431.229 613.783 431.229L566.857 432.114H565.94L539.886 432.62Z" fill="#263238"/>
<path d="M662.02 368.993C661.886 367.648 661.578 366.325 661.104 365.059C660.877 364.43 660.608 363.818 660.298 363.226L659.839 362.373L659.587 361.931C657.327 358.044 654.847 354.362 652.319 350.871L637.972 364.696C639.868 367.066 641.717 369.436 643.423 371.869C643.107 372.677 642.699 373.445 642.207 374.16C639.91 377.35 637.26 380.271 634.307 382.866C628.119 388.439 621.637 393.676 614.888 398.555L612.692 398.839L603.876 400.04L595.202 405.902L600.905 417.499L608.079 413.834C609.792 413.598 611.48 413.201 613.119 412.649C615.654 411.988 617.861 410.426 619.328 408.256C623.525 406.594 627.633 404.716 631.636 402.631C635.94 400.411 640.108 397.936 644.118 395.221C646.151 393.831 648.163 392.309 650.154 390.655C652.268 388.92 654.225 387 656 384.92C658.274 382.349 660.023 379.36 661.151 376.119C661.946 373.833 662.243 371.403 662.02 368.993ZM643.55 371.49C643.55 371.411 643.55 371.316 643.55 371.253C643.55 370.873 643.692 370.731 643.692 370.952C643.684 371.136 643.647 371.318 643.581 371.49H643.55Z" fill="#7F3E3B"/>
<path d="M505.733 415.705C509.571 392.061 493.515 369.783 469.871 365.945C446.227 362.107 423.949 378.163 420.111 401.807C416.273 425.45 432.329 447.729 455.973 451.567C479.616 455.404 501.895 439.349 505.733 415.705Z" fill="#263238"/>
<path d="M486.735 404.67H466.953V384.888C466.953 383.811 466.525 382.778 465.764 382.017C465.002 381.255 463.969 380.827 462.893 380.827C461.816 380.827 460.783 381.255 460.021 382.017C459.26 382.778 458.832 383.811 458.832 384.888V404.67H439.05C437.973 404.67 436.941 405.097 436.179 405.859C435.418 406.62 434.99 407.653 434.99 408.73C434.99 409.807 435.418 410.84 436.179 411.601C436.941 412.363 437.973 412.791 439.05 412.791H458.832V432.572C458.832 433.106 458.937 433.634 459.141 434.126C459.345 434.619 459.644 435.067 460.021 435.444C460.398 435.821 460.846 436.12 461.339 436.324C461.831 436.528 462.359 436.633 462.893 436.633C463.426 436.633 463.954 436.528 464.446 436.324C464.939 436.12 465.387 435.821 465.764 435.444C466.141 435.067 466.44 434.619 466.644 434.126C466.848 433.634 466.953 433.106 466.953 432.572V412.791H486.735C487.812 412.791 488.845 412.363 489.606 411.601C490.368 410.84 490.795 409.807 490.795 408.73C490.795 407.653 490.368 406.62 489.606 405.859C488.845 405.097 487.812 404.67 486.735 404.67Z" fill="white"/>
<path d="M576.336 255.581C577.13 255.742 577.873 256.093 578.5 256.605C579.128 257.117 579.622 257.774 579.939 258.52C579.992 258.633 580.078 258.729 580.184 258.796C580.29 258.863 580.413 258.899 580.539 258.899C580.627 258.921 580.719 258.921 580.808 258.899C580.886 258.863 580.956 258.812 581.015 258.749C581.073 258.686 581.119 258.612 581.148 258.531C581.177 258.45 581.19 258.364 581.186 258.278C581.182 258.192 581.161 258.107 581.124 258.03C580.712 257.087 580.077 256.259 579.273 255.617C578.469 254.976 577.521 254.54 576.51 254.348C576.338 254.325 576.164 254.371 576.027 254.477C575.889 254.582 575.798 254.738 575.775 254.909C575.752 255.081 575.798 255.255 575.904 255.393C576.009 255.531 576.164 255.621 576.336 255.644V255.581Z" fill="#263238"/>
</svg>
