<svg width="711" height="604" viewBox="0 0 711 604" fill="none" xmlns="http://www.w3.org/2000/svg">
<path d="M338.372 543.168C410.985 543.168 469.851 534.755 469.851 524.378C469.851 514 410.985 505.588 338.372 505.588C265.758 505.588 206.893 514 206.893 524.378C206.893 534.755 265.758 543.168 338.372 543.168Z" fill="#23B5D3"/>
<path opacity="0.5" d="M338.372 543.168C410.985 543.168 469.851 534.755 469.851 524.378C469.851 514 410.985 505.588 338.372 505.588C265.758 505.588 206.893 514 206.893 524.378C206.893 534.755 265.758 543.168 338.372 543.168Z" fill="#FFFDFD"/>
<path d="M627.288 587.325C668.077 587.325 701.144 578.912 701.144 568.535C701.144 558.157 668.077 549.745 627.288 549.745C586.499 549.745 553.432 558.157 553.432 568.535C553.432 578.912 586.499 587.325 627.288 587.325Z" fill="#23B5D3"/>
<path opacity="0.5" d="M627.288 587.325C668.077 587.325 701.144 578.912 701.144 568.535C701.144 558.157 668.077 549.745 627.288 549.745C586.499 549.745 553.432 558.157 553.432 568.535C553.432 578.912 586.499 587.325 627.288 587.325Z" fill="#FFFDFD"/>
<path d="M0.357571 135.961C-0.0123496 134.623 -0.0964202 133.223 0.110823 131.851C0.318067 130.478 0.811978 129.165 1.56041 127.997C2.30884 126.828 3.295 125.83 4.45469 125.068C5.61437 124.306 6.92158 123.796 8.2912 123.573C16.5728 122.442 26.7508 133.56 29.9695 140.293C30.2479 140.867 33.5536 150.471 33.4492 150.471C33.3448 150.471 18.765 150.801 12.78 148.192C7.61267 145.947 1.80163 141.685 0.357571 135.961ZM213.087 110.437C211.869 116.214 206.127 120.633 201.064 122.999C196.002 125.365 184.066 125.783 181.126 125.835C179.543 127.731 177.855 129.749 176.046 132.046C172.879 136.1 169.365 140.745 165.868 145.965C164.928 147.374 163.989 148.905 163.032 150.384C165.154 148.226 168.095 145.304 168.408 145.043C174.236 140.397 188.242 134.847 195.201 139.458C196.338 140.256 197.293 141.284 198.005 142.477C198.717 143.669 199.17 144.998 199.334 146.376C199.499 147.755 199.37 149.153 198.958 150.479C198.546 151.805 197.858 153.03 196.941 154.072C193.2 158.631 186.032 159.901 180.465 159.675C174.897 159.448 163.762 154.159 161.327 152.976C159.274 156.282 157.256 159.727 155.342 163.415C151.829 170.103 148.917 177.09 146.643 184.293L147.06 184.502C148.8 182.275 152.454 177.664 152.802 177.316C158.021 172.097 171.4 164.998 178.899 168.826C180.115 169.495 181.177 170.414 182.015 171.521C182.853 172.628 183.448 173.9 183.761 175.252C184.075 176.605 184.1 178.008 183.835 179.371C183.569 180.734 183.02 182.026 182.222 183.162C179.003 188.103 172.027 190.122 166.564 190.539C160.161 190.991 146.904 185.981 146.416 185.789C144.33 193.036 142.72 200.411 141.597 207.868C140.727 213.366 140.083 218.985 139.492 224.64C140.64 223.039 145.477 216.985 145.877 216.584C151.097 211.365 164.476 204.266 171.974 208.094C173.191 208.763 174.253 209.682 175.09 210.789C175.928 211.896 176.523 213.168 176.837 214.52C177.15 215.873 177.175 217.276 176.91 218.639C176.645 220.002 176.095 221.294 175.298 222.43C172.079 227.371 165.102 229.39 159.639 229.807C153.376 230.242 140.658 225.51 139.596 225.11C139.335 227.667 139.039 230.225 138.796 232.8C137.978 241.186 137.195 249.606 136.169 257.888C135.821 260.759 135.351 263.577 134.916 266.396C136.656 264.047 140.136 259.854 140.414 259.523C145.633 254.304 159.013 247.205 166.511 251.033C167.728 251.702 168.79 252.621 169.627 253.728C170.465 254.835 171.06 256.107 171.374 257.459C171.687 258.812 171.712 260.215 171.447 261.578C171.182 262.941 170.632 264.233 169.835 265.369C166.616 270.31 159.639 272.329 154.089 272.729C148.539 273.129 137.717 269.371 134.707 268.275C133.924 272.972 132.967 277.6 131.976 282.193C131.471 284.142 131.088 286.143 130.497 287.987C129.905 289.831 129.383 291.693 128.757 293.52C127.487 297.243 126.339 300.723 125.069 304.167C124.442 305.907 123.816 307.543 123.172 309.23C124.651 306.586 127.052 302.428 127.33 302.08C131.75 296.077 143.841 287.082 151.688 289.744C152.991 290.221 154.179 290.967 155.175 291.934C156.171 292.9 156.951 294.066 157.467 295.354C157.982 296.643 158.22 298.025 158.166 299.412C158.112 300.798 157.766 302.158 157.151 303.402C154.715 308.778 148.121 311.84 142.693 313.075C136.708 314.432 123.851 311.823 122.268 311.492C120.702 315.616 119.153 319.617 117.622 323.34C112.803 335.102 108.349 344.74 105.13 351.421C104.956 351.804 104.782 352.135 104.608 352.5H128.044L119.954 510.25C119.671 516.075 117.15 521.566 112.916 525.576C108.682 529.586 103.063 531.806 97.2314 531.772C91.4529 531.758 85.899 529.533 81.7092 525.554C77.5194 521.574 75.0117 516.142 74.7005 510.372L66.6277 352.57H91.7683C91.6465 351.473 91.5247 350.325 91.3681 349.09C90.533 341.8 89.1759 331.378 86.9837 318.973C86.3748 315.389 85.6441 311.614 84.8786 307.734C83.2431 307.943 70.264 309.578 64.4008 307.734C59.0595 306.099 52.7265 302.515 50.7083 297.017C50.1861 295.731 49.9409 294.349 49.9884 292.961C50.0359 291.574 50.3753 290.212 50.9842 288.965C51.5932 287.717 52.4582 286.612 53.5228 285.721C54.5874 284.83 55.8277 284.174 57.1631 283.794C65.2533 281.724 76.6492 291.588 80.616 297.921C80.8596 298.322 83.3301 303.437 84.5306 306.081C84.0608 303.732 83.5911 301.401 83.0517 298.965C82.3036 295.486 81.3119 291.78 80.5464 288.213C80.0244 286.386 79.5199 284.525 78.9979 282.663C78.476 280.802 77.8148 279.009 77.2581 277.148C76.336 274.451 75.2399 271.702 74.1612 268.971C70.6815 269.945 60.2425 272.624 54.9187 271.859C49.5948 271.093 42.6007 268.501 39.7647 263.334C39.0551 262.14 38.6045 260.81 38.4424 259.431C38.2802 258.051 38.4101 256.653 38.8237 255.328C39.2372 254.002 39.925 252.778 40.8425 251.735C41.76 250.692 42.8866 249.855 44.1491 249.276C51.8392 246.022 64.5747 254.043 69.4637 259.715C69.6202 259.889 70.525 261.194 71.5863 262.742C70.4554 260.098 69.3245 257.523 68.1066 254.826C64.6269 247.345 60.7819 239.829 56.9891 232.208C56.2061 230.642 55.4406 229.059 54.6577 227.476C51.6826 228.311 40.4607 231.321 34.8758 230.503C29.291 229.685 22.5578 227.145 19.7219 221.978C19.0097 220.786 18.557 219.457 18.3936 218.079C18.2302 216.7 18.3596 215.302 18.7734 213.977C19.1873 212.652 19.8762 211.429 20.7952 210.388C21.7141 209.347 22.8424 208.512 24.1063 207.937C31.7789 204.667 44.5319 212.705 49.4208 218.376C49.5948 218.585 50.6735 220.116 51.874 221.856C49.8732 217.715 47.9246 213.574 46.1151 209.416C42.9908 202.274 40.3405 194.933 38.1815 187.442C37.1376 187.755 24.0541 191.548 17.8429 190.643C12.3276 189.843 5.52487 187.286 2.68894 182.118C1.98703 180.932 1.54136 179.613 1.38067 178.244C1.21997 176.875 1.34783 175.488 1.75597 174.172C2.16412 172.856 2.84351 171.64 3.75036 170.602C4.65721 169.564 5.7714 168.728 7.02113 168.147C14.7112 164.877 27.4467 172.915 32.3357 178.586C32.6836 178.987 36.5461 184.641 37.8683 186.694C37.8609 186.607 37.8609 186.52 37.8683 186.433C35.93 179.022 34.6607 171.453 34.0755 163.815C33.5063 156.999 33.3436 150.155 33.5883 143.32C33.7275 136.987 34.2495 131.141 34.7714 126.078C35.0672 123.295 35.3804 120.772 35.7109 118.423L35.5718 118.51C35.4326 118.51 32.6314 108.854 32.5271 108.21C31.2918 100.851 33.2578 85.9057 40.6694 82.1129C41.9184 81.507 43.2811 81.1715 44.6686 81.1284C46.0561 81.0852 47.437 81.3354 48.7212 81.8625C50.0054 82.3897 51.1638 83.1819 52.1208 84.1874C53.0778 85.1929 53.8119 86.3891 54.2749 87.6977C56.4497 93.1782 54.0835 100.051 51.178 104.818C48.2725 109.585 38.5469 116.509 36.1285 118.162C35.8327 120.615 35.5544 123.242 35.3108 126.165C34.9106 131.28 34.5105 137.057 34.4931 143.372C34.4931 145.112 34.493 146.852 34.58 148.592C35.1542 145.634 35.9893 141.632 36.1111 141.18C38.4077 134.082 47.0198 121.729 55.3884 121.729C56.7754 121.772 58.1377 122.106 59.3871 122.71C60.6365 123.314 61.7451 124.173 62.6408 125.233C63.5365 126.293 64.1994 127.529 64.5866 128.862C64.9737 130.194 65.0764 131.593 64.8879 132.968C64.279 138.831 59.0073 143.842 54.2401 146.73C49.473 149.618 37.2594 151.341 34.6322 151.654C34.7366 155.551 34.9628 159.535 35.4152 163.694C36.1732 171.24 37.5997 178.704 39.6777 185.998H40.1475C40.3389 183.197 40.8782 177.299 40.9652 176.829C42.4789 169.522 49.6644 156.299 57.9982 155.395C59.3818 155.284 60.7731 155.466 62.0818 155.929C63.3906 156.391 64.5875 157.123 65.5948 158.078C66.6022 159.033 67.3975 160.189 67.9291 161.471C68.4608 162.753 68.7168 164.133 68.6807 165.52C68.6807 171.418 64.018 176.968 59.5988 180.361C54.4315 184.137 40.6173 187.286 40.0779 187.39C42.3352 194.584 45.0609 201.622 48.2377 208.459C50.5169 213.522 53.1266 218.603 55.7364 223.613C55.7364 221.63 56.5019 213.922 56.6237 213.366C58.1374 206.058 65.3229 192.836 73.6393 191.931C75.022 191.818 76.4129 191.998 77.7216 192.458C79.0304 192.918 80.2275 193.649 81.2352 194.602C82.2429 195.556 83.0385 196.711 83.5703 197.992C84.1021 199.274 84.3582 200.653 84.3218 202.039C84.3218 207.937 79.6765 213.487 75.2573 216.88C70.2814 220.708 57.0587 223.839 55.9452 224.031C57.1457 226.31 58.3113 228.607 59.5292 230.886C63.4786 238.332 67.4629 245.779 71.1687 253.26C72.4562 255.852 73.6393 258.479 74.8223 261.054C75.0311 258.097 75.5357 252.738 75.6227 252.268C77.1363 244.978 84.3218 231.738 92.6382 230.834C94.0218 230.723 95.4131 230.905 96.7219 231.368C98.0306 231.83 99.2275 232.562 100.235 233.517C101.242 234.472 102.038 235.628 102.569 236.91C103.101 238.192 103.357 239.572 103.321 240.959C103.321 246.857 98.6754 252.408 94.2562 255.8C89.8371 259.193 78.7544 262.029 75.6227 262.759C77.5713 267.092 79.3981 271.459 80.9987 275.808C81.6425 277.705 82.4254 279.601 82.9473 281.463L84.6872 286.978C85.6963 290.788 86.6532 294.32 87.4883 297.904C87.9407 299.644 88.306 301.384 88.7062 303.124C88.48 300.114 88.2016 295.312 88.219 294.877C88.6018 287.43 93.7169 273.251 101.79 271.111C103.146 270.773 104.56 270.727 105.935 270.976C107.311 271.226 108.618 271.765 109.77 272.558C110.922 273.351 111.891 274.379 112.615 275.576C113.339 276.772 113.8 278.109 113.969 279.497C114.085 280.215 114.131 280.944 114.108 281.671C117.409 287.355 119.206 293.786 119.327 300.357C119.327 300.827 118.544 306.464 118.092 309.317C118.997 307.108 119.832 304.898 120.771 302.584C122.076 299.244 123.364 295.625 124.616 292.145C125.19 290.405 125.782 288.492 126.356 286.647C126.93 284.803 127.383 282.942 127.905 281.08C128.635 278.314 129.244 275.425 129.853 272.537C126.374 271.424 116.23 267.927 112.211 264.343C108.192 260.759 103.791 254.739 104.26 248.858C104.329 247.472 104.688 246.116 105.315 244.878C105.942 243.64 106.822 242.547 107.898 241.671C108.974 240.795 110.223 240.155 111.562 239.793C112.902 239.43 114.302 239.354 115.674 239.568C123.886 241.081 130.079 254.808 131.054 262.185C131.054 262.412 131.054 263.925 131.054 265.891C131.576 263.055 132.098 260.237 132.515 257.349C133.716 249.171 134.673 240.785 135.682 232.417C135.873 230.677 136.117 228.937 136.325 227.197C133.402 226.258 122.407 222.569 118.162 218.811C113.916 215.053 109.741 209.207 110.228 203.344C110.292 201.958 110.647 200.6 111.271 199.36C111.895 198.12 112.773 197.025 113.848 196.147C114.923 195.268 116.171 194.627 117.511 194.263C118.851 193.899 120.252 193.822 121.624 194.036C129.853 195.55 136.047 209.294 137.004 216.654C137.004 216.915 137.004 218.811 137.108 220.934C137.717 216.376 138.396 211.852 139.179 207.381C140.511 199.729 142.348 192.173 144.677 184.763C143.65 184.432 130.636 180.379 125.956 176.203C121.798 172.48 117.535 166.599 118.005 160.718C118.074 159.332 118.433 157.976 119.06 156.738C119.687 155.5 120.567 154.408 121.643 153.532C122.719 152.655 123.967 152.015 125.307 151.653C126.646 151.291 128.047 151.214 129.418 151.428C137.63 152.941 143.824 166.669 144.798 174.046C144.798 174.567 144.972 181.405 144.92 183.858V183.597C147.399 176.379 150.508 169.393 154.211 162.719C157.506 156.713 161.148 150.903 165.12 145.321C168.738 140.101 172.375 135.578 175.559 131.594C177.298 129.436 179.038 127.505 180.569 125.713H180.378C180.239 125.713 183.283 116.022 183.544 115.431C186.572 108.628 196.436 97.232 204.753 98.1367C206.15 98.3088 207.493 98.7778 208.694 99.5121C209.895 100.246 210.924 101.229 211.713 102.394C212.503 103.559 213.034 104.88 213.271 106.267C213.507 107.654 213.445 109.076 213.087 110.437ZM117.274 310.901C115.865 310.205 104.904 304.776 100.624 300.148C96.9316 302.19 93.1204 304.008 89.2107 305.594C90.185 309.891 91.0898 314.102 91.8553 318.051C94.3432 330.526 95.9265 341 96.9356 348.359C97.1618 349.925 97.3357 351.334 97.5097 352.604H98.0665L99.8063 349.038C103.129 342.496 107.74 333.066 112.768 321.514C114.299 318.121 115.795 314.554 117.274 310.901ZM161.048 151.41C161.188 151.497 163.71 141.667 163.815 140.971C164.841 133.577 162.475 118.702 154.959 115.065C153.684 114.499 152.303 114.209 150.908 114.215C149.512 114.221 148.134 114.523 146.864 115.099C145.593 115.676 144.459 116.516 143.536 117.562C142.614 118.609 141.923 119.839 141.51 121.172C139.492 126.705 142.049 133.507 144.99 138.188C148.626 143.598 161.048 151.41 161.048 151.41Z" fill="#23B5D3"/>
<path opacity="0.3" d="M0.357571 135.961C-0.0123496 134.623 -0.0964202 133.223 0.110823 131.851C0.318067 130.478 0.811978 129.165 1.56041 127.997C2.30884 126.828 3.295 125.83 4.45469 125.068C5.61437 124.306 6.92158 123.796 8.2912 123.573C16.5728 122.442 26.7508 133.56 29.9695 140.293C30.2479 140.867 33.5536 150.471 33.4492 150.471C33.3448 150.471 18.765 150.801 12.78 148.192C7.61267 145.947 1.80163 141.685 0.357571 135.961ZM213.087 110.437C211.869 116.214 206.127 120.633 201.064 122.999C196.002 125.365 184.066 125.783 181.126 125.835C179.543 127.731 177.855 129.749 176.046 132.046C172.879 136.1 169.365 140.745 165.868 145.965C164.928 147.374 163.989 148.905 163.032 150.384C165.154 148.226 168.095 145.304 168.408 145.043C174.236 140.397 188.242 134.847 195.201 139.458C196.338 140.256 197.293 141.284 198.005 142.477C198.717 143.669 199.17 144.998 199.334 146.376C199.499 147.755 199.37 149.153 198.958 150.479C198.546 151.805 197.858 153.03 196.941 154.072C193.2 158.631 186.032 159.901 180.465 159.675C174.897 159.448 163.762 154.159 161.327 152.976C159.274 156.282 157.256 159.727 155.342 163.415C151.829 170.103 148.917 177.09 146.643 184.293L147.06 184.502C148.8 182.275 152.454 177.664 152.802 177.316C158.021 172.097 171.4 164.998 178.899 168.826C180.115 169.495 181.177 170.414 182.015 171.521C182.853 172.628 183.448 173.9 183.761 175.252C184.075 176.605 184.1 178.008 183.835 179.371C183.569 180.734 183.02 182.026 182.222 183.162C179.003 188.103 172.027 190.122 166.564 190.539C160.161 190.991 146.904 185.981 146.416 185.789C144.33 193.036 142.72 200.411 141.597 207.868C140.727 213.366 140.083 218.985 139.492 224.64C140.64 223.039 145.477 216.985 145.877 216.584C151.097 211.365 164.476 204.266 171.974 208.094C173.191 208.763 174.253 209.682 175.09 210.789C175.928 211.896 176.523 213.168 176.837 214.52C177.15 215.873 177.175 217.276 176.91 218.639C176.645 220.002 176.095 221.294 175.298 222.43C172.079 227.371 165.102 229.39 159.639 229.807C153.376 230.242 140.658 225.51 139.596 225.11C139.335 227.667 139.039 230.225 138.796 232.8C137.978 241.186 137.195 249.606 136.169 257.888C135.821 260.759 135.351 263.577 134.916 266.396C136.656 264.047 140.136 259.854 140.414 259.523C145.633 254.304 159.013 247.205 166.511 251.033C167.728 251.702 168.79 252.621 169.627 253.728C170.465 254.835 171.06 256.107 171.374 257.459C171.687 258.812 171.712 260.215 171.447 261.578C171.182 262.941 170.632 264.233 169.835 265.369C166.616 270.31 159.639 272.329 154.089 272.729C148.539 273.129 137.717 269.371 134.707 268.275C133.924 272.972 132.967 277.6 131.976 282.193C131.471 284.142 131.088 286.143 130.497 287.987C129.905 289.831 129.383 291.693 128.757 293.52C127.487 297.243 126.339 300.723 125.069 304.167C124.442 305.907 123.816 307.543 123.172 309.23C124.651 306.586 127.052 302.428 127.33 302.08C131.75 296.077 143.841 287.082 151.688 289.744C152.991 290.221 154.179 290.967 155.175 291.934C156.171 292.9 156.951 294.066 157.467 295.354C157.982 296.643 158.22 298.025 158.166 299.412C158.112 300.798 157.766 302.158 157.151 303.402C154.715 308.778 148.121 311.84 142.693 313.075C136.708 314.432 123.851 311.823 122.268 311.492C120.702 315.616 119.153 319.617 117.622 323.34C112.803 335.102 108.349 344.74 105.13 351.421C104.956 351.804 104.782 352.135 104.608 352.5H128.044L119.954 510.25C119.671 516.075 117.15 521.566 112.916 525.576C108.682 529.586 103.063 531.806 97.2314 531.772C91.4529 531.758 85.899 529.533 81.7092 525.554C77.5194 521.574 75.0117 516.142 74.7005 510.372L66.6277 352.57H91.7683C91.6465 351.473 91.5247 350.325 91.3681 349.09C90.533 341.8 89.1759 331.378 86.9837 318.973C86.3748 315.389 85.6441 311.614 84.8786 307.734C83.2431 307.943 70.264 309.578 64.4008 307.734C59.0595 306.099 52.7265 302.515 50.7083 297.017C50.1861 295.731 49.9409 294.349 49.9884 292.961C50.0359 291.574 50.3753 290.212 50.9842 288.965C51.5932 287.717 52.4582 286.612 53.5228 285.721C54.5874 284.83 55.8277 284.174 57.1631 283.794C65.2533 281.724 76.6492 291.588 80.616 297.921C80.8596 298.322 83.3301 303.437 84.5306 306.081C84.0608 303.732 83.5911 301.401 83.0517 298.965C82.3036 295.486 81.3119 291.78 80.5464 288.213C80.0244 286.386 79.5199 284.525 78.9979 282.663C78.476 280.802 77.8148 279.009 77.2581 277.148C76.336 274.451 75.2399 271.702 74.1612 268.971C70.6815 269.945 60.2425 272.624 54.9187 271.859C49.5948 271.093 42.6007 268.501 39.7647 263.334C39.0551 262.14 38.6045 260.81 38.4424 259.431C38.2802 258.051 38.4101 256.653 38.8237 255.328C39.2372 254.002 39.925 252.778 40.8425 251.735C41.76 250.692 42.8866 249.855 44.1491 249.276C51.8392 246.022 64.5747 254.043 69.4637 259.715C69.6202 259.889 70.525 261.194 71.5863 262.742C70.4554 260.098 69.3245 257.523 68.1066 254.826C64.6269 247.345 60.7819 239.829 56.9891 232.208C56.2061 230.642 55.4406 229.059 54.6577 227.476C51.6826 228.311 40.4607 231.321 34.8758 230.503C29.291 229.685 22.5578 227.145 19.7219 221.978C19.0097 220.786 18.557 219.457 18.3936 218.079C18.2302 216.7 18.3596 215.302 18.7734 213.977C19.1873 212.652 19.8762 211.429 20.7952 210.388C21.7141 209.347 22.8424 208.512 24.1063 207.937C31.7789 204.667 44.5319 212.705 49.4208 218.376C49.5948 218.585 50.6735 220.116 51.874 221.856C49.8732 217.715 47.9246 213.574 46.1151 209.416C42.9908 202.274 40.3405 194.933 38.1815 187.442C37.1376 187.755 24.0541 191.548 17.8429 190.643C12.3276 189.843 5.52487 187.286 2.68894 182.118C1.98703 180.932 1.54136 179.613 1.38067 178.244C1.21997 176.875 1.34783 175.488 1.75597 174.172C2.16412 172.856 2.84351 171.64 3.75036 170.602C4.65721 169.564 5.7714 168.728 7.02113 168.147C14.7112 164.877 27.4467 172.915 32.3357 178.586C32.6836 178.987 36.5461 184.641 37.8683 186.694C37.8609 186.607 37.8609 186.52 37.8683 186.433C35.93 179.022 34.6607 171.453 34.0755 163.815C33.5063 156.999 33.3436 150.155 33.5883 143.32C33.7275 136.987 34.2495 131.141 34.7714 126.078C35.0672 123.295 35.3804 120.772 35.7109 118.423L35.5718 118.51C35.4326 118.51 32.6314 108.854 32.5271 108.21C31.2918 100.851 33.2578 85.9057 40.6694 82.1129C41.9184 81.507 43.2811 81.1715 44.6686 81.1284C46.0561 81.0852 47.437 81.3354 48.7212 81.8625C50.0054 82.3897 51.1638 83.1819 52.1208 84.1874C53.0778 85.1929 53.8119 86.3891 54.2749 87.6977C56.4497 93.1782 54.0835 100.051 51.178 104.818C48.2725 109.585 38.5469 116.509 36.1285 118.162C35.8327 120.615 35.5544 123.242 35.3108 126.165C34.9106 131.28 34.5105 137.057 34.4931 143.372C34.4931 145.112 34.493 146.852 34.58 148.592C35.1542 145.634 35.9893 141.632 36.1111 141.18C38.4077 134.082 47.0198 121.729 55.3884 121.729C56.7754 121.772 58.1377 122.106 59.3871 122.71C60.6365 123.314 61.7451 124.173 62.6408 125.233C63.5365 126.293 64.1994 127.529 64.5866 128.862C64.9737 130.194 65.0764 131.593 64.8879 132.968C64.279 138.831 59.0073 143.842 54.2401 146.73C49.473 149.618 37.2594 151.341 34.6322 151.654C34.7366 155.551 34.9628 159.535 35.4152 163.694C36.1732 171.24 37.5997 178.704 39.6777 185.998H40.1475C40.3389 183.197 40.8782 177.299 40.9652 176.829C42.4789 169.522 49.6644 156.299 57.9982 155.395C59.3818 155.284 60.7731 155.466 62.0818 155.929C63.3906 156.391 64.5875 157.123 65.5948 158.078C66.6022 159.033 67.3975 160.189 67.9291 161.471C68.4608 162.753 68.7168 164.133 68.6807 165.52C68.6807 171.418 64.018 176.968 59.5988 180.361C54.4315 184.137 40.6173 187.286 40.0779 187.39C42.3352 194.584 45.0609 201.622 48.2377 208.459C50.5169 213.522 53.1266 218.603 55.7364 223.613C55.7364 221.63 56.5019 213.922 56.6237 213.366C58.1374 206.058 65.3229 192.836 73.6393 191.931C75.022 191.818 76.4129 191.998 77.7216 192.458C79.0304 192.918 80.2275 193.649 81.2352 194.602C82.2429 195.556 83.0385 196.711 83.5703 197.992C84.1021 199.274 84.3582 200.653 84.3218 202.039C84.3218 207.937 79.6765 213.487 75.2573 216.88C70.2814 220.708 57.0587 223.839 55.9452 224.031C57.1457 226.31 58.3113 228.607 59.5292 230.886C63.4786 238.332 67.4629 245.779 71.1687 253.26C72.4562 255.852 73.6393 258.479 74.8223 261.054C75.0311 258.097 75.5357 252.738 75.6227 252.268C77.1363 244.978 84.3218 231.738 92.6382 230.834C94.0218 230.723 95.4131 230.905 96.7219 231.368C98.0306 231.83 99.2275 232.562 100.235 233.517C101.242 234.472 102.038 235.628 102.569 236.91C103.101 238.192 103.357 239.572 103.321 240.959C103.321 246.857 98.6754 252.408 94.2562 255.8C89.8371 259.193 78.7544 262.029 75.6227 262.759C77.5713 267.092 79.3981 271.459 80.9987 275.808C81.6425 277.705 82.4254 279.601 82.9473 281.463L84.6872 286.978C85.6963 290.788 86.6532 294.32 87.4883 297.904C87.9407 299.644 88.306 301.384 88.7062 303.124C88.48 300.114 88.2016 295.312 88.219 294.877C88.6018 287.43 93.7169 273.251 101.79 271.111C103.146 270.773 104.56 270.727 105.935 270.976C107.311 271.226 108.618 271.765 109.77 272.558C110.922 273.351 111.891 274.379 112.615 275.576C113.339 276.772 113.8 278.109 113.969 279.497C114.085 280.215 114.131 280.944 114.108 281.671C117.409 287.355 119.206 293.786 119.327 300.357C119.327 300.827 118.544 306.464 118.092 309.317C118.997 307.108 119.832 304.898 120.771 302.584C122.076 299.244 123.364 295.625 124.616 292.145C125.19 290.405 125.782 288.492 126.356 286.647C126.93 284.803 127.383 282.942 127.905 281.08C128.635 278.314 129.244 275.425 129.853 272.537C126.374 271.424 116.23 267.927 112.211 264.343C108.192 260.759 103.791 254.739 104.26 248.858C104.329 247.472 104.688 246.116 105.315 244.878C105.942 243.64 106.822 242.547 107.898 241.671C108.974 240.795 110.223 240.155 111.562 239.793C112.902 239.43 114.302 239.354 115.674 239.568C123.886 241.081 130.079 254.808 131.054 262.185C131.054 262.412 131.054 263.925 131.054 265.891C131.576 263.055 132.098 260.237 132.515 257.349C133.716 249.171 134.673 240.785 135.682 232.417C135.873 230.677 136.117 228.937 136.325 227.197C133.402 226.258 122.407 222.569 118.162 218.811C113.916 215.053 109.741 209.207 110.228 203.344C110.292 201.958 110.647 200.6 111.271 199.36C111.895 198.12 112.773 197.025 113.848 196.147C114.923 195.268 116.171 194.627 117.511 194.263C118.851 193.899 120.252 193.822 121.624 194.036C129.853 195.55 136.047 209.294 137.004 216.654C137.004 216.915 137.004 218.811 137.108 220.934C137.717 216.376 138.396 211.852 139.179 207.381C140.511 199.729 142.348 192.173 144.677 184.763C143.65 184.432 130.636 180.379 125.956 176.203C121.798 172.48 117.535 166.599 118.005 160.718C118.074 159.332 118.433 157.976 119.06 156.738C119.687 155.5 120.567 154.408 121.643 153.532C122.719 152.655 123.967 152.015 125.307 151.653C126.646 151.291 128.047 151.214 129.418 151.428C137.63 152.941 143.824 166.669 144.798 174.046C144.798 174.567 144.972 181.405 144.92 183.858V183.597C147.399 176.379 150.508 169.393 154.211 162.719C157.506 156.713 161.148 150.903 165.12 145.321C168.738 140.101 172.375 135.578 175.559 131.594C177.298 129.436 179.038 127.505 180.569 125.713H180.378C180.239 125.713 183.283 116.022 183.544 115.431C186.572 108.628 196.436 97.232 204.753 98.1367C206.15 98.3088 207.493 98.7778 208.694 99.5121C209.895 100.246 210.924 101.229 211.713 102.394C212.503 103.559 213.034 104.88 213.271 106.267C213.507 107.654 213.445 109.076 213.087 110.437ZM117.274 310.901C115.865 310.205 104.904 304.776 100.624 300.148C96.9316 302.19 93.1204 304.008 89.2107 305.594C90.185 309.891 91.0898 314.102 91.8553 318.051C94.3432 330.526 95.9265 341 96.9356 348.359C97.1618 349.925 97.3357 351.334 97.5097 352.604H98.0665L99.8063 349.038C103.129 342.496 107.74 333.066 112.768 321.514C114.299 318.121 115.795 314.554 117.274 310.901ZM161.048 151.41C161.188 151.497 163.71 141.667 163.815 140.971C164.841 133.577 162.475 118.702 154.959 115.065C153.684 114.499 152.303 114.209 150.908 114.215C149.512 114.221 148.134 114.523 146.864 115.099C145.593 115.676 144.459 116.516 143.536 117.562C142.614 118.609 141.923 119.839 141.51 121.172C139.492 126.705 142.049 133.507 144.99 138.188C148.626 143.598 161.048 151.41 161.048 151.41Z" fill="#FFFDFD"/>
<path d="M605.662 539.184C599.361 543.783 592.719 547.895 585.793 551.484C577.599 555.26 576.015 555.26 576.328 557.469C576.642 559.679 586.106 563.141 603.452 559.053C620.799 554.964 628.993 555.886 631.516 547.692C634.039 539.497 629.95 541.706 624.905 541.706C618.451 541.204 612.027 540.362 605.662 539.184Z" fill="#071013" stroke="#071013" stroke-linecap="round" stroke-linejoin="round"/>
<path d="M630.576 549.866C623.182 551.815 609.855 555.086 598.72 556.826C591.409 558.15 583.894 557.817 576.729 555.851C576.535 556.064 576.397 556.322 576.327 556.601C576.257 556.881 576.258 557.173 576.329 557.452C576.642 559.662 586.106 563.124 603.453 559.035C619.076 555.364 627.253 555.73 630.576 549.866Z" fill="#FFFDFD" stroke="#071013" stroke-linecap="round" stroke-linejoin="round"/>
<path d="M690.775 388.601C690.775 388.601 691.419 399.649 683.815 414.786C676.212 429.922 653.908 431.175 647.923 431.175C641.938 431.175 643.817 424.877 643.817 424.877L644.756 419.188L634.665 416.665C634.665 416.665 607.872 452.314 607.872 455.15C607.872 457.986 635.57 523.09 637.153 530.659C638.736 538.227 639.676 540.123 636.196 542.959C633.618 544.778 630.657 545.979 627.541 546.471C624.424 546.963 621.237 546.731 618.224 545.795C613.54 544.33 609.002 542.431 604.671 540.123C604.494 537.29 604.494 534.449 604.671 531.616C604.984 528.78 609.716 530.989 607.507 526.257C605.297 521.525 604.027 520.254 602.774 517.105C601.522 513.956 571.683 464.232 572.953 452.558C574.224 440.883 602.2 400.363 602.2 399.423C603.379 396.469 604.744 393.592 606.289 390.811C606.289 390.811 607.541 386.705 610.708 386.079C613.874 385.452 662.102 386.079 674.403 384.513C686.704 382.947 692.689 383.556 690.775 388.601Z" fill="#23B5D3" stroke="#071013" stroke-linecap="round" stroke-linejoin="round"/>
<path d="M612.151 478.133L613.943 481.943" stroke="#071013" stroke-width="0.75" stroke-linecap="round" stroke-linejoin="round"/>
<path d="M617.789 434.863L604.183 452.645C604.183 452.645 586.785 454.75 592.005 455.098C597.224 455.446 602.444 455.446 602.444 455.446C602.444 455.446 597.903 456.838 598.964 457.533C600.186 458.021 601.494 458.258 602.809 458.229L610.238 474.027" stroke="#071013" stroke-width="0.75" stroke-linecap="round" stroke-linejoin="round"/>
<path d="M591.204 255.835C591.204 255.835 586.802 258.271 580.174 262.046C573.545 265.822 569.735 267.718 568.83 270.885C567.925 274.051 548.63 313.545 548.63 313.545C548.63 313.545 556.199 317.964 563.141 321.113C568.415 323.282 573.911 324.869 579.53 325.846L585.845 312.606C585.845 312.606 598.024 335.606 603.244 343.818C612.534 358.485 609.542 367.48 608.289 372.525C607.037 377.571 603.557 387.036 604.496 388.288C605.436 389.541 630.037 400.589 645.817 399.649C661.598 398.71 688.635 397.248 690.531 395.039C692.427 392.829 692.741 380.094 692.741 379.137C692.741 378.18 689.957 353.596 687.121 338.773C684.285 323.949 668.835 284.212 663.79 273.494C658.744 262.777 654.012 259.297 641.172 254.895C628.332 250.494 609.316 249.537 601.434 250.476C593.553 251.416 591.204 255.835 591.204 255.835Z" fill="#071013" stroke="#071013" stroke-linecap="round" stroke-linejoin="round"/>
<path d="M644.286 298.13L663.824 304.411L647.435 306.151" stroke="#FFFDFD" stroke-width="0.75" stroke-linecap="round" stroke-linejoin="round"/>
<path d="M612.204 348.011C612.204 348.011 631.029 363.357 654.064 363.357" stroke="#FFFDFD" stroke-width="0.75" stroke-linecap="round" stroke-linejoin="round"/>
<path d="M618.484 361.965C618.484 361.965 634.143 369.289 650.219 366.854" stroke="#FFFDFD" stroke-width="0.75" stroke-linecap="round" stroke-linejoin="round"/>
<path d="M578.016 293.259L585.845 312.606L569.299 288.718" stroke="#FFFDFD" stroke-width="0.75" stroke-linecap="round" stroke-linejoin="round"/>
<path d="M589.864 258.045C589.439 261.6 589.334 265.187 589.551 268.762C589.864 275.391 592.074 280.123 590.178 284.855C588.281 289.588 590.508 291.815 592.387 289.588C594.266 287.361 597.433 278.853 598.076 277.287C598.72 275.721 611.995 272.868 613.839 272.868C615.684 272.868 621.721 282.333 624.557 283.585C627.393 284.838 626.766 282.333 624.87 277.287C622.973 272.242 620.781 254.669 616.362 249.206C611.943 243.743 594.353 245.118 589.864 258.045Z" fill="#FFFDFD" stroke="#071013" stroke-linecap="round" stroke-linejoin="round"/>
<path d="M593.101 263.716C591.361 263.107 602.235 279.81 606.654 288.318C611.073 296.825 615.162 294.633 615.806 288.004C616.449 281.376 613.596 259.297 613.596 259.297C613.596 259.297 602.235 266.883 593.101 263.716Z" fill="#FFFDFD" stroke="#071013" stroke-linecap="round" stroke-linejoin="round"/>
<path d="M615.683 280.071C611.615 281.816 607.111 282.277 602.774 281.393C604.253 283.933 605.627 286.352 606.654 288.352C611.073 296.86 615.162 294.668 615.805 288.039C615.941 285.383 615.9 282.721 615.683 280.071Z" fill="#23B5D3" stroke="#071013" stroke-linecap="round" stroke-linejoin="round"/>
<path d="M624.939 397.544V436.534" stroke="#071013" stroke-width="4" stroke-linecap="round" stroke-linejoin="round"/>
<path d="M658.379 406.33C658.199 406.348 658.019 406.348 657.839 406.33L599.19 399.371C598.027 399.186 596.982 398.56 596.271 397.621C595.56 396.683 595.24 395.507 595.377 394.338C595.514 393.169 596.098 392.099 597.007 391.351C597.915 390.602 599.078 390.235 600.251 390.324L658.901 397.283C660.083 397.379 661.181 397.933 661.96 398.828C662.739 399.722 663.137 400.886 663.069 402.071C663.001 403.255 662.472 404.366 661.595 405.165C660.719 405.964 659.564 406.389 658.379 406.348V406.33Z" fill="#FFFDFD" stroke="#071013" stroke-linecap="round" stroke-linejoin="round"/>
<path d="M658.64 404.886C660.206 404.886 661.476 403.391 661.476 401.546C661.476 399.701 660.206 398.205 658.64 398.205C657.074 398.205 655.804 399.701 655.804 401.546C655.804 403.391 657.074 404.886 658.64 404.886Z" fill="#FFFDFD" stroke="#071013" stroke-width="0.75" stroke-linecap="round" stroke-linejoin="round"/>
<path d="M605.384 569.37L640.546 586.681C640.749 586.771 640.968 586.818 641.19 586.818C641.411 586.818 641.631 586.771 641.833 586.681L662.938 578.869C663.239 578.758 663.5 578.56 663.688 578.299C663.876 578.039 663.982 577.729 663.994 577.408C664.005 577.087 663.92 576.77 663.751 576.498C663.581 576.225 663.335 576.009 663.042 575.877L630.09 560.619C629.752 560.462 629.372 560.425 629.011 560.514L605.732 566.343C605.407 566.418 605.113 566.593 604.891 566.842C604.669 567.091 604.53 567.402 604.492 567.734C604.453 568.065 604.519 568.4 604.678 568.693C604.838 568.986 605.085 569.222 605.384 569.37Z" fill="#FFFDFD" stroke="#071013" stroke-linecap="round" stroke-linejoin="round"/>
<path d="M633.36 575.129H626.401C624.819 575.124 623.304 574.494 622.186 573.376C621.068 572.258 620.438 570.742 620.433 569.161L616.066 441.632C616.066 440.197 616.636 438.82 617.651 437.806C618.665 436.791 620.042 436.221 621.477 436.221H629.567C631.002 436.221 632.378 436.791 633.393 437.806C634.408 438.82 634.978 440.197 634.978 441.632L639.345 569.161C639.345 569.946 639.19 570.724 638.889 571.449C638.588 572.174 638.147 572.833 637.591 573.387C637.035 573.941 636.375 574.381 635.649 574.68C634.923 574.978 634.145 575.131 633.36 575.129Z" fill="#FFFDFD" stroke="#071013" stroke-linecap="round" stroke-linejoin="round"/>
<path d="M650.446 570.71C645.155 575.679 639.572 580.326 633.726 584.628C626.767 589.361 626.158 588.734 627.741 591.883C629.324 595.032 634.039 596.929 647.297 594.093C660.554 591.257 664.956 589.047 672.211 584.941C679.466 580.835 681.658 580.835 679.779 578.313C677.9 575.79 650.446 570.71 650.446 570.71Z" fill="#071013" stroke="#071013" stroke-linecap="round" stroke-linejoin="round"/>
<path d="M672.21 584.907C679.448 580.801 681.658 580.801 679.779 578.278C679.28 577.813 678.687 577.463 678.039 577.251C668.424 582.934 658.243 587.598 647.661 591.17C634.091 595.259 627.479 590.526 627.479 590.526L627.323 590.787C627.46 591.132 627.617 591.469 627.792 591.796C629.358 594.945 634.091 596.842 647.348 594.006C660.606 591.17 664.955 589.013 672.21 584.907Z" fill="#FFFDFD" stroke="#071013" stroke-linecap="round" stroke-linejoin="round"/>
<path d="M700.309 318.591C698.054 313.652 696.056 308.6 694.324 303.454C689.035 305.977 672.872 319.513 672.872 319.513L687.069 338.738C687.069 338.738 673.516 358.294 667.2 369.342C662.559 376.88 656.818 383.682 650.167 389.524L634.665 389.332C633.981 389.767 633.404 390.351 632.979 391.041C632.554 391.732 632.292 392.51 632.212 393.316C632.212 395.752 629.463 404.33 630.681 405.861C631.899 407.392 639.258 407.687 639.258 407.687C639.258 407.687 651.194 408.923 653.334 405.861C653.334 405.861 649.662 401.876 649.958 400.05C650.254 398.223 653.942 396.987 653.942 396.987L657.944 396.692C657.944 396.692 659.318 397.649 660.467 391.472C663.564 389.419 674.82 381.868 680.771 375.918C687.73 368.959 708.208 345.958 709.774 341.539C711.339 337.12 704.415 327.742 700.309 318.591Z" fill="#FFFDFD" stroke="#071013" stroke-linecap="round" stroke-linejoin="round"/>
<path d="M698.847 315.233C695.768 308.013 694.324 303.454 694.324 303.454C689.035 305.977 672.872 319.513 672.872 319.513L679.622 328.647C687.18 326.103 693.851 321.448 698.847 315.233Z" fill="#23B5D3" stroke="#071013" stroke-linecap="round" stroke-linejoin="round"/>
<path d="M655.213 295.886L671.932 325.463L681.71 318.834C687.232 314.742 692.121 309.858 696.22 304.341C689.431 293.585 681.841 283.355 673.516 273.738C660.258 258.601 653.96 257.662 648.288 257.975" fill="#071013"/>
<path d="M655.213 295.886L671.932 325.463L681.71 318.834C687.232 314.742 692.121 309.858 696.22 304.341C689.431 293.585 681.841 283.355 673.516 273.738C660.258 258.601 653.96 257.662 648.288 257.975" stroke="#071013" stroke-linecap="round" stroke-linejoin="round"/>
<path d="M614.466 398.553C614.466 397.318 609.246 384.478 609.246 384.478L593.588 375.866C587.133 362.887 577.216 342.113 575.511 338.46C574.238 335.925 573.179 333.289 572.344 330.578L575.006 324.906C570.965 324.011 567.016 322.741 563.21 321.113C560.27 319.791 557.243 318.243 554.72 316.886C553.328 322.21 550.944 331.378 551.849 335.937C552.754 340.495 573.336 366.558 583.618 379.728C583.618 379.728 587.916 397.944 589.76 400.693L591.604 403.442C591.604 403.442 594.649 406.817 596.18 406.504C597.495 406.09 598.734 405.468 599.851 404.66C600.938 405.016 602.092 405.123 603.226 404.973C604.719 404.331 606.067 403.396 607.193 402.224C607.193 402.224 608.724 403.964 612.413 403.146C616.101 402.329 614.466 399.771 614.466 398.553Z" fill="#FFFDFD" stroke="#071013" stroke-linecap="round" stroke-linejoin="round"/>
<path d="M552.806 324.454C558.708 328.451 565.501 330.936 572.588 331.692C572.362 331.013 572.275 330.665 572.275 330.665L574.937 324.993C570.896 324.098 566.947 322.828 563.141 321.2C560.2 319.878 557.173 318.33 554.65 316.973C554.094 318.991 553.328 321.67 552.806 324.454Z" fill="#23B5D3" stroke="#071013" stroke-linecap="round" stroke-linejoin="round"/>
<path d="M327.15 407.966V397.318" stroke="#071013" stroke-width="6" stroke-linecap="round" stroke-linejoin="round"/>
<path d="M625.409 549.814L612.239 552.006C612.239 552.006 604.201 554.199 602.739 561.506C599.225 579.096 581.026 585.707 565.507 589.187C543.546 594.264 521.266 597.839 498.819 599.887C464.579 602.931 429.8 602.357 395.891 596.407C376.422 592.927 346.74 589.169 332.23 574.346C331.006 573.224 330.084 571.812 329.551 570.24C328.385 565.96 332.352 562.063 336.18 559.801C343.209 556.038 350.702 553.212 358.467 551.397C378.388 545.934 403.268 544.89 421.832 536.226C427.26 533.703 430.531 529.667 424.998 524.795C407.774 509.537 327.15 506.84 327.15 478.151V407.966" stroke="#071013" stroke-width="3" stroke-linecap="round" stroke-linejoin="round"/>
<path d="M577.128 242.143C576.507 238.844 575.417 235.651 573.892 232.66C571.735 228.989 565.802 223.074 564.723 217.472C563.645 211.869 571.961 205.293 571.961 205.293C571.961 205.293 567.42 205.293 568.482 203.344C569.543 201.396 574.745 202.266 574.745 202.266C574.392 201.251 574.306 200.163 574.495 199.106C574.684 198.049 575.141 197.058 575.824 196.228C578.19 193.427 579.06 198.821 579.06 198.821C581.609 193.598 585.569 189.193 590.49 186.103C598.25 181.562 612.064 187.842 613.578 191.705C615.092 195.567 611.438 194.245 611.438 194.245C611.438 194.245 629.985 202.648 631.272 215.123C632.56 227.598 621.79 225.475 621.79 225.475C621.79 225.475 622.434 232.817 620.92 235.409C619.406 238.002 618.763 238.889 611.212 232.817C603.661 226.745 588.142 228.937 587.272 233.687C586.402 238.437 583.792 245.535 579.947 244.683C576.102 243.83 577.128 242.143 577.128 242.143Z" fill="#071013" stroke="#071013" stroke-linecap="round" stroke-linejoin="round"/>
<path d="M587.794 213.731C587.794 213.731 580.33 207.294 588.472 205.954C596.615 204.614 599.642 219.159 608.115 222.204C613.349 223.969 619.066 223.607 624.035 221.195" stroke="#FFFDFD" stroke-width="0.5" stroke-linecap="round" stroke-linejoin="round"/>
<path d="M586.524 212.6C586.524 212.6 577.982 207.033 578.712 203.309C579.443 199.586 593.223 194.75 600.652 199.221C608.081 203.692 608.463 212.983 617.754 215.21C627.045 217.437 625.566 212.235 624.452 210.739" stroke="#FFFDFD" stroke-width="0.5" stroke-linecap="round" stroke-linejoin="round"/>
<path d="M570.169 218.933C568.673 217.072 568.308 210.008 574.258 208.894C580.208 207.781 585.045 214.114 585.045 214.114C583.914 214.845 577.233 216.706 576.119 222.291C575.006 227.876 580.573 227.858 577.981 232.73" stroke="#FFFDFD" stroke-width="0.5" stroke-linecap="round" stroke-linejoin="round"/>
<path d="M578.208 242.282C578.208 242.282 577.895 241.882 577.425 241.394C576.277 240.211 573.04 239.359 572.049 241.725C570.657 245.083 574.45 251.451 577.268 252.286C578.039 252.543 578.862 252.606 579.663 252.47C580.464 252.333 581.219 252.001 581.861 251.503C581.861 251.503 589.621 267.161 599.381 270.832C609.142 274.503 613.961 262.951 617.041 255.174C620.12 247.397 618.989 244.578 618.989 244.578C618.989 244.578 624.209 245.814 625.827 239.672C627.445 233.53 624.853 231.182 623.182 231.46C621.609 231.901 620.105 232.557 618.711 233.409L616.206 226.71C616.206 226.71 611.456 229.511 603.366 226.432C595.275 223.352 591.361 215.836 589.447 216.393C587.533 216.95 587.707 221.96 587.707 221.96C587.707 221.96 584.088 220.012 582.696 221.682C581.305 223.352 584.923 225.318 583.253 231.46C581.583 237.602 579.6 239.481 579.6 239.481C579.6 239.481 580.991 242.264 579.878 242.264L578.208 242.282Z" fill="#FFFDFD" stroke="#071013" stroke-linecap="round" stroke-linejoin="round"/>
<path d="M594.354 238.193C594.614 239.376 594.267 240.438 593.605 240.577C592.944 240.716 592.179 239.898 591.866 238.715C591.552 237.532 591.953 236.471 592.631 236.332C593.31 236.192 594.11 237.027 594.354 238.193Z" fill="#071013"/>
<path d="M607.732 236.662C607.732 237.863 607.245 238.872 606.549 238.889C605.853 238.906 605.279 237.949 605.244 236.749C605.21 235.549 605.714 234.557 606.41 234.539C607.106 234.522 607.68 235.462 607.732 236.662Z" fill="#071013"/>
<path d="M587.307 234.418C587.792 233.255 588.572 232.239 589.57 231.47C590.567 230.701 591.749 230.206 592.996 230.033" stroke="#071013" stroke-linecap="round" stroke-linejoin="round"/>
<path d="M604.044 229.233C605.294 228.931 606.606 229.001 607.817 229.434C609.029 229.867 610.088 230.643 610.864 231.669" stroke="#071013" stroke-linecap="round" stroke-linejoin="round"/>
<path d="M606.306 254.078C606.306 254.078 596.737 257.644 592.022 250.981" stroke="#071013" stroke-linecap="round" stroke-linejoin="round"/>
<path d="M595.084 253.921C595.084 253.921 595.415 260.411 598.825 261.716C602.235 263.02 603.853 254.756 603.853 254.756C600.905 255.192 597.896 254.905 595.084 253.921Z" fill="#071013" stroke="#071013" stroke-linecap="round" stroke-linejoin="round"/>
<path d="M595.867 257.871C596.058 258.687 596.423 259.454 596.936 260.117C597.449 260.781 598.1 261.326 598.842 261.716C600.582 262.394 601.922 260.428 602.757 258.41C600.561 257.569 598.168 257.381 595.867 257.871Z" fill="#FFFDFD" stroke="#071013" stroke-linecap="round" stroke-linejoin="round"/>
<path d="M603.557 231.495C602.534 234.986 602.474 238.689 603.383 242.212C605.019 247.258 607.454 247.432 606.48 248.058C605.506 248.684 601.261 249.519 600.304 248.719" fill="#FFFDFD"/>
<path d="M603.557 231.495C602.534 234.986 602.474 238.689 603.383 242.212C605.019 247.258 607.454 247.432 606.48 248.058C605.506 248.684 601.261 249.519 600.304 248.719" stroke="#071013" stroke-linecap="round" stroke-linejoin="round"/>
<path d="M643.191 412.594C643.191 412.594 625.253 455.463 624.661 464.928C624.07 474.392 651.107 555.26 651.733 558.739C652.36 562.219 647.331 561.575 647.331 565.038C647.396 567.437 647.928 569.801 648.897 571.997C649.21 572.937 674.125 580.505 678.231 580.818C682.337 581.131 684.216 580.192 684.216 577.338C684.216 574.485 682.337 565.664 682.337 564.725C682.337 563.785 687.382 557.765 685.486 549.275C683.589 540.784 665.948 487.006 663.738 481.317C661.528 475.628 659.006 469.66 659.006 469.66C659.976 468.24 660.623 466.625 660.902 464.928C661.094 463.461 661.094 461.975 660.902 460.509C660.902 460.509 688.235 416.717 688.27 403.094" fill="#23B5D3"/>
<path d="M643.191 412.594C643.191 412.594 625.253 455.463 624.661 464.928C624.07 474.392 651.107 555.26 651.733 558.739C652.36 562.219 647.331 561.575 647.331 565.038C647.396 567.437 647.928 569.801 648.897 571.997C649.21 572.937 674.125 580.505 678.231 580.818C682.337 581.131 684.216 580.192 684.216 577.338C684.216 574.485 682.337 565.664 682.337 564.725C682.337 563.785 687.382 557.765 685.486 549.275C683.589 540.784 665.948 487.006 663.738 481.317C661.528 475.628 659.006 469.66 659.006 469.66C659.976 468.24 660.623 466.625 660.902 464.928C661.094 463.461 661.094 461.975 660.902 460.509C660.902 460.509 688.235 416.717 688.27 403.094" stroke="#071013" stroke-linecap="round" stroke-linejoin="round"/>
<path d="M662.329 503.256C669.462 525.631 677.883 552.267 678.474 556.234C679.518 563.194 677.43 564.62 678.126 568.1C678.822 571.58 680.214 576.468 680.214 576.468" stroke="#071013" stroke-width="0.75" stroke-linecap="round" stroke-linejoin="round"/>
<path d="M678.109 408.244C672.68 421.484 662.694 445.911 660.71 450.94C657.909 457.899 653.02 463.501 654.082 464.197C655.143 464.893 657.909 464.893 655.821 467.329C653.734 469.765 652.342 470.478 652.342 471.522C652.342 471.887 655.543 481.874 659.684 494.87" stroke="#071013" stroke-width="0.75" stroke-linecap="round" stroke-linejoin="round"/>
<path d="M681.606 399.632L679.866 403.999" stroke="#071013" stroke-width="0.75" stroke-linecap="round" stroke-linejoin="round"/>
<path d="M634.717 406.8C634.717 406.8 635.726 395.613 636.753 394.256" stroke="#071013" stroke-width="0.75" stroke-linecap="round" stroke-linejoin="round"/>
<path d="M642.86 394.326C642.86 394.326 638.371 408.714 639.258 407.792" stroke="#071013" stroke-width="0.75" stroke-linecap="round" stroke-linejoin="round"/>
<path d="M646.252 395.265L644.217 406.122C644.217 406.122 643.869 407.148 646.931 407.479" stroke="#071013" stroke-width="0.75" stroke-linecap="round" stroke-linejoin="round"/>
<path d="M607.124 402.224L605.21 400.015" stroke="#071013" stroke-width="0.75" stroke-linecap="round" stroke-linejoin="round"/>
<path d="M599.781 404.66L598.076 403.407" stroke="#071013" stroke-width="0.75" stroke-linecap="round" stroke-linejoin="round"/>
<path d="M596.11 406.504L593.674 402.729" stroke="#071013" stroke-width="0.75" stroke-linecap="round" stroke-linejoin="round"/>
<path d="M490.694 362.434C501.605 350.609 511.169 337.608 519.21 323.671" stroke="#071013" stroke-linecap="round" stroke-linejoin="round"/>
<path d="M349.768 431.21C399.915 427.147 447.049 405.63 482.97 370.403" stroke="#071013" stroke-linecap="round" stroke-linejoin="round"/>
<path d="M300.079 429.592C307.056 430.64 314.083 431.337 321.131 431.68" stroke="#071013" stroke-linecap="round" stroke-linejoin="round"/>
<path d="M234.261 404.764C238.726 407.084 243.256 409.247 247.849 411.254" stroke="#071013" stroke-linecap="round" stroke-linejoin="round"/>
<path d="M119.275 232.73C122.344 266.56 133.335 299.193 151.359 327.986C169.382 356.779 193.932 380.924 223.021 398.466" stroke="#071013" stroke-linecap="round" stroke-linejoin="round"/>
<path d="M453.601 39.4C422.884 18.156 387.189 5.22776 349.992 1.87394C312.795 -1.47989 275.364 4.85502 241.342 20.2619" stroke="#071013" stroke-linecap="round" stroke-linejoin="round"/>
<path d="M529.737 129.088C527.591 124.217 525.271 119.45 522.777 114.787" stroke="#071013" stroke-linecap="round" stroke-linejoin="round"/>
<path d="M446.468 366.14C458.109 357.494 468.748 347.573 478.185 336.563" stroke="#071013" stroke-linecap="round" stroke-linejoin="round"/>
<path d="M310.065 403.703C355.21 408.434 400.584 397.186 438.291 371.916" stroke="#071013" stroke-linecap="round" stroke-linejoin="round"/>
<path d="M266.256 394.012C272.218 396.065 278.325 397.846 284.577 399.354" stroke="#071013" stroke-linecap="round" stroke-linejoin="round"/>
<path d="M143.494 265.909C144.805 270.258 146.26 274.55 147.861 278.783" stroke="#071013" stroke-linecap="round" stroke-linejoin="round"/>
<path d="M182.135 83.2786C162.224 106.574 148.078 134.231 140.842 164.009C133.606 193.788 133.483 224.852 140.484 254.687" stroke="#071013" stroke-linecap="round" stroke-linejoin="round"/>
<path d="M412.211 33.3106C381.636 19.1423 347.912 13.1376 314.326 15.8818C280.74 18.626 248.438 30.0255 220.568 48.9691" stroke="#071013" stroke-linecap="round" stroke-linejoin="round"/>
<path d="M511.416 138.779C495.444 98.2267 466.382 64.1732 428.843 42.0271" stroke="#071013" stroke-linecap="round" stroke-linejoin="round"/>
<path d="M519.819 165.712C518.741 161.032 517.471 156.421 516.044 151.88" stroke="#071013" stroke-linecap="round" stroke-linejoin="round"/>
<path d="M511.816 212.009C511.816 209.712 513.869 207.381 513.782 205.049C513.695 202.718 511.468 200.578 511.312 198.316C511.155 196.054 513.051 193.549 512.773 191.357C512.495 189.165 510.128 187.077 509.798 184.815C509.467 182.553 511.155 179.944 510.72 177.699C510.285 175.455 507.78 173.628 507.24 171.401C506.701 169.174 508.215 166.442 507.64 164.233C507.066 162.023 504.387 160.405 503.708 158.213C503.03 156.021 504.317 153.185 503.569 151.045C502.821 148.905 500.09 147.461 499.202 145.338C498.315 143.216 499.428 140.275 498.524 138.188C497.619 136.1 494.731 134.882 493.739 132.829C492.748 130.776 493.583 127.766 492.521 125.748C491.46 123.73 488.502 122.755 487.302 120.772C486.101 118.789 486.78 115.744 485.562 113.813C484.344 111.881 481.317 111.116 480.029 109.237C478.742 107.358 479.125 104.261 477.768 102.417C476.411 100.572 473.348 100.051 471.922 98.2585C470.495 96.4665 470.652 93.3696 469.155 91.6298C467.659 89.8899 464.562 89.5941 463.014 87.9239C461.465 86.2537 461.378 83.1394 459.76 81.5213C458.142 79.9033 455.028 79.7815 453.358 78.2678C451.688 76.7542 451.374 73.6225 449.652 72.1262C447.93 70.63 444.798 70.7866 443.023 69.3599C441.249 67.9333 440.692 64.8712 438.865 63.5141C437.038 62.157 433.941 62.5398 432.045 61.2523C430.148 59.9648 429.4 56.9375 427.452 55.7196C425.503 54.5018 422.476 55.1281 420.492 53.9798C418.509 52.8315 417.535 49.8912 415.516 48.7603C413.498 47.6294 410.488 48.5341 408.435 47.5424C406.382 46.5507 405.182 43.68 403.077 42.7579C400.971 41.8358 398.066 42.9145 395.926 42.0794C393.786 41.2442 392.446 38.4779 390.219 37.7124C387.992 36.9469 385.243 38.2517 383.051 37.5732C380.859 36.8947 379.241 34.2501 377.031 33.6586C374.822 33.067 372.108 34.5633 369.863 34.0413C367.619 33.5194 365.827 31.014 363.565 30.5617C361.303 30.1093 358.728 31.8318 356.449 31.4838C354.17 31.1358 352.204 28.7697 349.925 28.5087C347.646 28.2477 345.175 30.1441 342.965 29.9701C340.756 29.7962 338.512 27.5866 336.215 27.4996C333.918 27.4126 331.622 29.483 329.256 29.483C326.889 29.483 324.645 27.4126 322.296 27.4996C319.948 27.5866 317.825 29.8136 315.546 29.9701C313.267 30.1267 310.796 28.2303 308.586 28.5087C306.377 28.787 304.306 31.1532 302.062 31.4838C299.818 31.8144 297.191 30.1267 294.946 30.5617C292.702 30.9966 290.875 33.502 288.648 34.0413C286.421 34.5807 283.689 33.067 281.48 33.6586C279.27 34.2501 277.635 36.8947 275.46 37.5732C273.285 38.2517 270.432 36.9643 268.275 37.7124C266.117 38.4605 264.795 41.192 262.585 42.0794C260.376 42.9667 257.522 41.8532 255.435 42.7579C253.347 43.6626 252.129 46.5507 250.076 47.5424C248.023 48.5341 245.013 47.699 242.995 48.7603C240.977 49.8216 239.985 52.7793 238.019 53.9798C236.053 55.1803 232.973 54.5191 231.06 55.7196C229.146 56.9201 228.363 59.9474 226.484 61.2349C224.605 62.5224 221.508 62.1396 219.664 63.4967C217.819 64.8537 217.298 67.9159 215.506 69.3599C213.713 70.804 210.617 70.6126 208.877 72.1089C207.137 73.6051 206.841 76.702 205.171 78.2505C203.501 79.7989 200.386 79.8859 198.768 81.5039C197.15 83.122 197.028 86.2363 195.515 87.9065C194.001 89.5767 190.922 89.8551 189.425 91.595C187.929 93.3348 188.086 96.4317 186.659 98.2237C185.232 100.016 182.17 100.538 180.813 102.382C179.456 104.226 179.839 107.306 178.551 109.185C177.264 111.064 174.237 111.829 173.019 113.778C171.801 115.726 172.427 118.754 171.279 120.737C170.131 122.721 167.173 123.695 166.06 125.73C164.946 127.766 165.833 130.741 164.842 132.794C163.85 134.847 160.979 136.065 160.057 138.153C159.135 140.241 160.214 143.164 159.379 145.304C158.543 147.444 155.76 148.783 155.012 151.01C154.263 153.237 155.534 155.986 154.872 158.178C154.211 160.37 151.532 161.989 150.94 164.198C150.349 166.408 151.845 169.139 151.341 171.366C150.836 173.593 148.313 175.403 147.861 177.664C147.409 179.926 149.148 182.519 148.8 184.78C148.452 187.042 146.086 189.025 145.825 191.322C145.564 193.619 147.461 196.054 147.287 198.281C147.113 200.508 144.886 202.718 144.816 205.015C144.747 207.311 146.782 209.625 146.782 211.974C146.782 214.323 144.729 216.584 144.816 218.933C144.903 221.282 147.13 223.405 147.287 225.684C147.443 227.963 145.547 230.433 145.825 232.643C146.104 234.853 148.47 236.923 148.8 239.167C149.131 241.412 147.443 244.056 147.861 246.301C148.278 248.545 150.819 250.355 151.341 252.581C151.862 254.808 150.349 257.557 150.94 259.75C151.532 261.942 154.194 263.595 154.872 265.769C155.551 267.944 154.263 270.798 155.012 272.955C155.76 275.112 158.491 276.522 159.379 278.662C160.266 280.802 159.152 283.707 160.057 285.795C160.962 287.883 163.85 289.101 164.842 291.154C165.833 293.207 164.981 296.216 166.06 298.235C167.138 300.253 170.079 301.245 171.279 303.228C172.479 305.211 171.801 308.256 173.019 310.187C174.237 312.118 177.264 312.884 178.551 314.763C179.839 316.642 179.456 319.739 180.813 321.583C182.17 323.427 185.232 323.949 186.659 325.741C188.086 327.533 187.929 330.648 189.425 332.37C190.922 334.093 194.019 334.406 195.567 336.093C197.115 337.781 197.202 340.878 198.821 342.496C200.439 344.114 203.553 344.236 205.223 345.732C206.893 347.228 207.207 350.395 208.929 351.874C210.651 353.353 213.766 353.213 215.558 354.64C217.35 356.067 217.889 359.129 219.716 360.486C221.543 361.843 224.64 361.46 226.536 362.748C228.432 364.035 229.181 367.062 231.129 368.28C233.078 369.498 236.105 368.872 238.089 370.02C240.072 371.168 241.046 374.126 243.064 375.24C245.083 376.353 248.075 375.466 250.146 376.457C252.216 377.449 253.399 380.32 255.504 381.242C257.609 382.164 260.515 381.085 262.655 381.921C264.795 382.756 266.135 385.539 268.362 386.288C270.589 387.036 273.337 385.766 275.53 386.427C277.722 387.088 279.34 389.767 281.549 390.359C283.759 390.95 286.473 389.454 288.718 389.959C290.962 390.463 292.754 392.986 295.016 393.438C297.278 393.891 299.852 392.151 302.132 392.499C304.411 392.847 306.377 395.213 308.656 395.474C310.935 395.735 313.406 393.838 315.615 394.012C317.825 394.186 320.069 396.413 322.366 396.5C324.662 396.587 326.959 394.517 329.325 394.517C331.691 394.517 333.953 396.57 336.285 396.5C338.616 396.431 340.756 394.186 343.018 394.012C345.279 393.838 347.785 395.752 349.977 395.474C352.169 395.195 354.257 392.829 356.519 392.499C358.781 392.168 361.39 393.856 363.635 393.438C365.879 393.021 367.706 390.48 369.933 389.959C372.16 389.437 374.891 390.95 377.101 390.359C379.311 389.767 380.946 387.105 383.121 386.427C385.296 385.748 388.149 387.036 390.306 386.288C392.464 385.539 393.873 382.808 395.996 381.921C398.118 381.033 401.058 382.164 403.146 381.242C405.234 380.32 406.452 377.449 408.505 376.457C410.558 375.466 413.568 376.318 415.586 375.24C417.604 374.161 418.596 371.221 420.562 370.02C422.528 368.82 425.59 369.498 427.521 368.28C429.452 367.062 430.218 364.035 432.097 362.748C433.976 361.46 437.073 361.843 438.917 360.486C440.761 359.129 441.283 356.067 443.075 354.64C444.867 353.213 447.964 353.37 449.704 351.874C451.444 350.377 451.74 347.281 453.41 345.732C455.08 344.184 458.194 344.097 459.813 342.479C461.431 340.861 461.552 337.764 463.066 336.076C464.58 334.388 467.711 334.093 469.208 332.37C470.704 330.648 470.547 327.533 471.974 325.741C473.401 323.949 476.463 323.427 477.82 321.583C479.177 319.739 478.794 316.659 480.082 314.763C481.369 312.867 484.396 312.118 485.614 310.187C486.832 308.256 486.206 305.194 487.354 303.228C488.502 301.262 491.443 300.27 492.574 298.252C493.704 296.234 492.8 293.241 493.791 291.171C494.783 289.101 497.654 287.917 498.576 285.812C499.498 283.707 498.419 280.802 499.255 278.662C500.09 276.522 502.856 275.182 503.621 272.972C504.387 270.763 503.082 267.979 503.761 265.787C504.439 263.595 507.101 261.994 507.693 259.767C508.284 257.54 506.788 254.843 507.293 252.599C507.797 250.355 510.32 248.562 510.772 246.318C511.225 244.074 509.502 241.464 509.85 239.185C510.198 236.906 512.564 234.94 512.825 232.66C513.086 230.381 511.19 227.911 511.364 225.701C511.538 223.492 513.747 221.247 513.834 218.951C513.921 216.654 511.816 214.305 511.816 212.009Z" fill="#23B5D3" stroke="#071013" stroke-width="2" stroke-linecap="round" stroke-linejoin="round"/>
<path d="M274.677 38.2865L277.895 47.2989" stroke="#071013" stroke-width="2" stroke-linecap="round" stroke-linejoin="round"/>
<path d="M262.429 43.1233L265.334 50.2044" stroke="#071013" stroke-width="2" stroke-linecap="round" stroke-linejoin="round"/>
<path d="M486.606 121.068C481.342 125.582 475.354 129.175 468.895 131.698" stroke="#071013" stroke-width="2" stroke-linecap="round" stroke-linejoin="round"/>
<path d="M493.044 132.985C490.646 134.503 488.172 135.896 485.632 137.161" stroke="#071013" stroke-width="2" stroke-linecap="round" stroke-linejoin="round"/>
<path d="M225.718 363.009C225.718 363.009 233.443 354.309 234.731 347.872" stroke="#071013" stroke-width="2" stroke-linecap="round" stroke-linejoin="round"/>
<path d="M204.127 345.227C204.127 345.227 210.582 337.189 211.869 335.902" stroke="#071013" stroke-width="2" stroke-linecap="round" stroke-linejoin="round"/>
<path d="M369.689 389.036L367.114 374.874" stroke="#071013" stroke-width="2" stroke-linecap="round" stroke-linejoin="round"/>
<path d="M383.851 386.148L381.92 378.093" stroke="#071013" stroke-width="2" stroke-linecap="round" stroke-linejoin="round"/>
<path d="M442.797 354.257L431.854 342.009" stroke="#071013" stroke-width="2" stroke-linecap="round" stroke-linejoin="round"/>
<path d="M494.331 291.119L477.907 282.437" stroke="#071013" stroke-width="2" stroke-linecap="round" stroke-linejoin="round"/>
<path d="M148.087 212.217L161.936 212.531" stroke="#071013" stroke-width="2" stroke-linecap="round" stroke-linejoin="round"/>
<path d="M167.729 212.861L174.497 213.174" stroke="#071013" stroke-width="2" stroke-linecap="round" stroke-linejoin="round"/>
<path d="M165.798 292.093C167.416 291.449 177.977 288.613 177.977 288.613" stroke="#071013" stroke-width="2" stroke-linecap="round" stroke-linejoin="round"/>
<path d="M369.794 34.3197C368.819 36.2683 366.871 47.4902 366.871 47.4902" stroke="#071013" stroke-width="2" stroke-linecap="round" stroke-linejoin="round"/>
<path d="M382.459 38.7041L380.998 46.0288" stroke="#071013" stroke-width="2" stroke-linecap="round" stroke-linejoin="round"/>
<path d="M432.671 62.592L428.774 67.4635" stroke="#071013" stroke-width="2" stroke-linecap="round" stroke-linejoin="round"/>
<path d="M178.221 109.393L187.964 114.752" stroke="#071013" stroke-width="2" stroke-linecap="round" stroke-linejoin="round"/>
<path d="M193.827 117.675L201.622 122.059" stroke="#071013" stroke-width="2" stroke-linecap="round" stroke-linejoin="round"/>
<path d="M380.894 158.822C380.894 158.822 377.919 154.211 362.887 144.729C347.855 135.247 308.952 126.235 293.624 117.953C278.296 109.411 261.211 93.3 255.243 85.5577C249.276 77.8155 250.198 71.9696 245.396 71.4999C240.594 71.0301 235.792 73.2397 232.452 83.296C229.111 93.3522 233.2 118.545 235.931 126.287C238.663 134.029 246.683 138.936 251.781 140.989C256.879 143.042 268.275 148.453 268.257 153.307C268.24 158.161 267.631 159.118 265.526 159.483C263.421 159.849 217.141 166.703 210.008 168.774C202.874 170.844 199.795 183.841 201.831 194.088C203.866 204.336 211.939 207.555 209.503 214.827C207.067 222.1 202.874 230.625 207.015 240.281C211.156 249.937 218.933 248.441 215.906 255.939C212.878 263.438 212.844 272.207 216.706 277.844C220.569 283.481 225.666 287.135 225.631 293.972C225.597 300.81 237.532 315.859 245.031 317.999C248.736 319.113 282.385 322.801 315.146 323.132C347.889 323.967 379.746 321.392 379.693 321.392C380.088 267.167 380.488 212.977 380.894 158.822Z" fill="#FFFDFD" stroke="#071013" stroke-width="3" stroke-linecap="round" stroke-linejoin="round"/>
<path d="M446.276 316.311C426.79 319.258 407.235 321.427 387.609 322.818C386.34 322.874 385.074 322.663 383.892 322.198C382.71 321.733 381.639 321.025 380.748 320.119C379.857 319.214 379.167 318.131 378.721 316.942C378.276 315.752 378.085 314.482 378.162 313.215C378.359 264.256 378.556 215.32 378.754 166.408C378.705 165.122 378.915 163.839 379.371 162.636C379.827 161.433 380.521 160.334 381.41 159.404C382.299 158.474 383.366 157.733 384.548 157.223C385.729 156.714 387.001 156.447 388.288 156.438C407.913 156.995 427.469 157.79 446.955 158.822C449.494 159.002 451.871 160.134 453.61 161.993C455.349 163.851 456.322 166.298 456.333 168.843C456.124 214.299 455.921 259.79 455.724 305.316C455.647 307.953 454.667 310.485 452.947 312.486C451.227 314.488 448.873 315.838 446.276 316.311Z" fill="#071013" stroke="#071013" stroke-width="3" stroke-linecap="round" stroke-linejoin="round"/>
<path d="M402.711 305.298C402.759 304.343 402.605 303.388 402.261 302.496C401.916 301.604 401.388 300.793 400.711 300.118C400.034 299.442 399.223 298.916 398.329 298.574C397.436 298.232 396.481 298.08 395.526 298.13C393.513 298.347 391.653 299.307 390.311 300.823C388.969 302.338 388.242 304.301 388.271 306.325C388.213 307.285 388.359 308.247 388.699 309.147C389.039 310.047 389.566 310.864 390.244 311.546C390.923 312.228 391.738 312.759 392.636 313.103C393.535 313.448 394.496 313.598 395.456 313.545C397.466 313.298 399.315 312.322 400.652 310.801C401.989 309.281 402.722 307.323 402.711 305.298Z" fill="#FFFDFD" stroke="#071013" stroke-width="3" stroke-linecap="round" stroke-linejoin="round"/>
<path d="M380.285 140.902C399.579 140.902 415.221 125.26 415.221 105.966C415.221 86.6714 399.579 71.0302 380.285 71.0302C360.99 71.0302 345.349 86.6714 345.349 105.966C345.349 125.26 360.99 140.902 380.285 140.902Z" fill="#FFFDFD"/>
<path d="M439.17 157.686C444.239 152.617 444.239 144.399 439.17 139.331C434.101 134.262 425.884 134.262 420.815 139.331C415.746 144.399 415.746 152.617 420.815 157.686C425.884 162.755 434.101 162.755 439.17 157.686Z" fill="#FFFDFD"/>
<path opacity="0.2" d="M316.259 388.497C318.451 388.654 320.539 390.811 322.766 390.898C324.993 390.985 327.22 388.984 329.43 388.984C331.639 388.984 333.901 390.968 336.111 390.898C338.32 390.828 340.425 388.654 342.618 388.497C344.81 388.34 347.211 390.237 349.403 389.906C351.595 389.576 353.544 387.366 355.718 387.036C357.893 386.705 360.433 388.34 362.678 387.94C364.922 387.54 366.61 385.087 368.75 384.6C370.89 384.113 373.552 385.557 375.709 384.983C377.867 384.408 379.415 381.851 381.52 381.19C383.625 380.529 386.374 381.781 388.479 381.051C390.585 380.32 391.959 377.571 393.995 376.84C396.03 376.109 398.884 377.066 400.954 376.179C403.024 375.292 404.138 372.525 406.174 371.551C408.209 370.577 411.062 371.412 413.011 370.385C414.96 369.359 415.917 366.488 417.83 365.392C419.744 364.296 422.702 364.87 424.564 363.652C426.425 362.434 427.173 359.546 429 358.311C430.827 357.076 433.802 357.441 435.577 356.119C437.351 354.797 437.873 351.839 439.596 350.464C441.318 349.09 444.328 349.246 445.998 347.802C447.668 346.358 447.964 343.366 449.582 341.87C451.2 340.373 454.21 340.286 455.776 338.72C457.342 337.155 457.412 334.162 458.908 332.544C460.404 330.926 463.414 330.63 464.858 328.943C466.302 327.255 466.145 324.28 467.52 322.54C468.894 320.8 471.852 320.296 473.174 318.521C474.497 316.746 474.114 313.771 475.367 311.944C476.619 310.118 479.525 309.387 480.69 307.508C481.856 305.629 481.282 302.689 482.43 300.775C483.579 298.861 486.397 297.921 487.424 295.973C488.45 294.024 487.65 291.119 488.607 289.135C489.564 287.152 492.347 285.986 493.235 283.916C494.122 281.845 493.078 279.079 493.896 276.956C494.714 274.834 497.375 273.477 498.106 271.441C498.837 269.406 497.584 266.622 498.245 264.482C498.907 262.342 501.464 260.811 502.038 258.671C502.612 256.531 501.151 253.904 501.655 251.712C502.16 249.519 504.578 247.814 504.996 245.64C505.413 243.465 503.761 240.959 504.091 238.68C504.422 236.401 506.718 234.557 506.962 232.365C507.206 230.172 505.379 227.789 505.553 225.562C505.727 223.335 507.867 221.282 507.936 219.055C508.006 216.828 506.022 214.601 506.022 212.391C506.022 210.182 508.023 207.92 507.936 205.71C507.849 203.501 505.709 201.396 505.553 199.203C505.396 197.011 507.206 194.61 506.962 192.418C506.718 190.226 504.404 188.277 504.091 186.103C503.778 183.928 505.396 181.388 504.996 179.143C504.596 176.899 502.143 175.211 501.655 173.071C501.556 172.597 501.527 172.11 501.568 171.627C379.084 276.017 226.675 267.962 157.273 257.157C157.243 257.607 157.284 258.06 157.395 258.497C157.969 260.637 160.527 262.203 161.188 264.308C161.849 266.413 160.596 269.162 161.327 271.267C162.058 273.372 164.807 274.747 165.538 276.765C166.268 278.783 165.311 281.654 166.199 283.724C167.086 285.795 169.852 286.926 170.827 288.944C171.801 290.962 170.966 293.833 171.992 295.781C173.019 297.73 175.89 298.687 176.986 300.601C178.082 302.515 177.508 305.455 178.725 307.317C179.943 309.178 182.831 309.926 184.067 311.753C185.302 313.58 184.937 316.555 186.259 318.347C187.581 320.139 190.539 320.626 191.913 322.366C193.288 324.106 193.131 327.081 194.575 328.769C196.019 330.456 199.012 330.735 200.508 332.353C202.004 333.971 202.091 336.981 203.657 338.546C205.223 340.112 208.216 340.165 209.834 341.678C211.452 343.192 211.747 346.167 213.435 347.611C215.123 349.055 218.098 348.898 219.838 350.273C221.577 351.647 222.082 354.623 223.857 355.927C225.631 357.232 228.606 356.867 230.433 358.12C232.26 359.372 232.991 362.278 234.87 363.461C236.749 364.644 239.689 364.035 241.603 365.201C243.517 366.366 244.456 369.15 246.405 370.194C248.353 371.238 251.259 370.403 253.242 371.377C255.226 372.351 256.391 375.1 258.462 375.988C260.532 376.875 263.299 375.831 265.421 376.649C267.544 377.467 268.901 380.128 270.936 380.859C272.972 381.59 275.756 380.355 277.896 380.998C280.036 381.642 281.567 384.217 283.707 384.791C285.847 385.365 288.474 383.921 290.666 384.408C292.858 384.896 294.581 387.331 296.756 387.749C298.93 388.166 301.436 386.514 303.628 386.844C305.82 387.175 307.751 389.471 309.943 389.715C312.136 389.959 314.032 388.34 316.259 388.497Z" fill="#071013"/>
</svg>
